<mxfile host="app.diagrams.net" modified="2024-02-20T13:24:09.217Z" agent="Mozilla/5.0 (Windows NT 10.0; Win64; x64) AppleWebKit/537.36 (KHTML, like Gecko) Chrome/121.0.0.0 Safari/537.36" etag="Gl7lrczbTNtT-JTfP-8N" version="22.1.18" type="google" pages="6">
  <diagram name="UC" id="3Xy32y5k3bUTUxg72x5P">
    <mxGraphModel grid="1" page="1" gridSize="10" guides="1" tooltips="1" connect="1" arrows="1" fold="1" pageScale="1" pageWidth="1500" pageHeight="1100" math="0" shadow="0">
      <root>
        <mxCell id="0" />
        <mxCell id="1" parent="0" />
        <mxCell id="nStSami3oqOqF6eMbcRC-4" value="" style="edgeStyle=orthogonalEdgeStyle;rounded=0;orthogonalLoop=1;jettySize=auto;html=1;" edge="1" parent="1" source="nStSami3oqOqF6eMbcRC-1" target="nStSami3oqOqF6eMbcRC-3">
          <mxGeometry relative="1" as="geometry" />
        </mxCell>
        <mxCell id="aj8yj5MGE4CQmLHHnwiA-24" style="edgeStyle=orthogonalEdgeStyle;rounded=0;orthogonalLoop=1;jettySize=auto;html=1;entryX=0;entryY=0.5;entryDx=0;entryDy=0;endArrow=none;endFill=0;" edge="1" parent="1" source="nStSami3oqOqF6eMbcRC-1" target="aj8yj5MGE4CQmLHHnwiA-6">
          <mxGeometry relative="1" as="geometry" />
        </mxCell>
        <mxCell id="aj8yj5MGE4CQmLHHnwiA-25" style="edgeStyle=orthogonalEdgeStyle;rounded=0;orthogonalLoop=1;jettySize=auto;html=1;entryX=0;entryY=0.5;entryDx=0;entryDy=0;endArrow=none;endFill=0;" edge="1" parent="1" source="nStSami3oqOqF6eMbcRC-1" target="aj8yj5MGE4CQmLHHnwiA-8">
          <mxGeometry relative="1" as="geometry" />
        </mxCell>
        <mxCell id="aj8yj5MGE4CQmLHHnwiA-27" style="edgeStyle=orthogonalEdgeStyle;rounded=0;orthogonalLoop=1;jettySize=auto;html=1;entryX=0;entryY=0.5;entryDx=0;entryDy=0;endArrow=none;endFill=0;" edge="1" parent="1" source="nStSami3oqOqF6eMbcRC-1" target="aj8yj5MGE4CQmLHHnwiA-9">
          <mxGeometry relative="1" as="geometry">
            <Array as="points">
              <mxPoint x="220" y="794.75" />
              <mxPoint x="320" y="794.75" />
            </Array>
          </mxGeometry>
        </mxCell>
        <mxCell id="aj8yj5MGE4CQmLHHnwiA-34" style="edgeStyle=orthogonalEdgeStyle;rounded=0;orthogonalLoop=1;jettySize=auto;html=1;entryX=0;entryY=0.5;entryDx=0;entryDy=0;endArrow=none;endFill=0;" edge="1" parent="1" source="nStSami3oqOqF6eMbcRC-1" target="aj8yj5MGE4CQmLHHnwiA-29">
          <mxGeometry relative="1" as="geometry" />
        </mxCell>
        <mxCell id="nStSami3oqOqF6eMbcRC-1" value="Zalogowany użytkownik" style="shape=umlActor;verticalLabelPosition=bottom;verticalAlign=top;html=1;" vertex="1" parent="1">
          <mxGeometry x="80" y="755" width="40" height="80" as="geometry" />
        </mxCell>
        <mxCell id="nStSami3oqOqF6eMbcRC-2" value="System" style="shape=umlFrame;whiteSpace=wrap;html=1;pointerEvents=0;strokeWidth=4;" vertex="1" parent="1">
          <mxGeometry x="160" y="40" width="1200" height="1000" as="geometry" />
        </mxCell>
        <mxCell id="aj8yj5MGE4CQmLHHnwiA-65" style="edgeStyle=orthogonalEdgeStyle;rounded=0;orthogonalLoop=1;jettySize=auto;html=1;entryX=0;entryY=0.5;entryDx=0;entryDy=0;endArrow=none;endFill=0;" edge="1" parent="1" source="nStSami3oqOqF6eMbcRC-3" target="nStSami3oqOqF6eMbcRC-23">
          <mxGeometry relative="1" as="geometry" />
        </mxCell>
        <mxCell id="nStSami3oqOqF6eMbcRC-3" value="Użytkownik" style="shape=umlActor;verticalLabelPosition=bottom;verticalAlign=top;html=1;allowArrows=1;" vertex="1" parent="1">
          <mxGeometry x="80" y="120" width="40" height="80" as="geometry" />
        </mxCell>
        <mxCell id="nStSami3oqOqF6eMbcRC-10" value="" style="edgeStyle=orthogonalEdgeStyle;rounded=0;orthogonalLoop=1;jettySize=auto;html=1;startArrow=classic;startFill=1;endArrow=none;endFill=0;" edge="1" parent="1" source="nStSami3oqOqF6eMbcRC-11" target="nStSami3oqOqF6eMbcRC-12">
          <mxGeometry relative="1" as="geometry" />
        </mxCell>
        <mxCell id="bje-6XYZIAR_55hRUe0G-8" style="edgeStyle=orthogonalEdgeStyle;rounded=0;orthogonalLoop=1;jettySize=auto;html=1;entryX=1;entryY=0.5;entryDx=0;entryDy=0;fontSize=12;startSize=8;endSize=8;endArrow=none;endFill=0;" edge="1" parent="1" source="nStSami3oqOqF6eMbcRC-11" target="aj8yj5MGE4CQmLHHnwiA-36">
          <mxGeometry relative="1" as="geometry" />
        </mxCell>
        <mxCell id="bje-6XYZIAR_55hRUe0G-9" style="edgeStyle=orthogonalEdgeStyle;rounded=0;orthogonalLoop=1;jettySize=auto;html=1;entryX=1;entryY=0.5;entryDx=0;entryDy=0;fontSize=12;startSize=8;endSize=8;endArrow=none;endFill=0;" edge="1" parent="1" source="nStSami3oqOqF6eMbcRC-11" target="aj8yj5MGE4CQmLHHnwiA-37">
          <mxGeometry relative="1" as="geometry" />
        </mxCell>
        <mxCell id="bje-6XYZIAR_55hRUe0G-10" style="edgeStyle=orthogonalEdgeStyle;rounded=0;orthogonalLoop=1;jettySize=auto;html=1;entryX=1;entryY=0.5;entryDx=0;entryDy=0;fontSize=12;startSize=8;endSize=8;endArrow=none;endFill=0;" edge="1" parent="1" source="nStSami3oqOqF6eMbcRC-11" target="aj8yj5MGE4CQmLHHnwiA-40">
          <mxGeometry relative="1" as="geometry" />
        </mxCell>
        <mxCell id="bje-6XYZIAR_55hRUe0G-11" style="edgeStyle=orthogonalEdgeStyle;rounded=0;orthogonalLoop=1;jettySize=auto;html=1;entryX=1;entryY=0.5;entryDx=0;entryDy=0;fontSize=12;startSize=8;endSize=8;endArrow=none;endFill=0;" edge="1" parent="1" source="nStSami3oqOqF6eMbcRC-11" target="aj8yj5MGE4CQmLHHnwiA-41">
          <mxGeometry relative="1" as="geometry" />
        </mxCell>
        <mxCell id="nStSami3oqOqF6eMbcRC-11" value="Redaktor" style="shape=umlActor;verticalLabelPosition=bottom;verticalAlign=top;html=1;" vertex="1" parent="1">
          <mxGeometry x="1400" y="360" width="40" height="80" as="geometry" />
        </mxCell>
        <mxCell id="aj8yj5MGE4CQmLHHnwiA-54" style="edgeStyle=orthogonalEdgeStyle;rounded=0;orthogonalLoop=1;jettySize=auto;html=1;entryX=1;entryY=0.5;entryDx=0;entryDy=0;endArrow=none;endFill=0;" edge="1" parent="1" source="nStSami3oqOqF6eMbcRC-12" target="aj8yj5MGE4CQmLHHnwiA-38">
          <mxGeometry relative="1" as="geometry" />
        </mxCell>
        <mxCell id="nStSami3oqOqF6eMbcRC-12" value="Redaktor naczelny&lt;br&gt;" style="shape=umlActor;verticalLabelPosition=bottom;verticalAlign=top;html=1;" vertex="1" parent="1">
          <mxGeometry x="1400" y="120" width="40" height="80" as="geometry" />
        </mxCell>
        <mxCell id="nStSami3oqOqF6eMbcRC-21" value="" style="endArrow=classic;html=1;rounded=0;startArrow=none;startFill=0;endFill=1;" edge="1" parent="1" source="nStSami3oqOqF6eMbcRC-11" target="nStSami3oqOqF6eMbcRC-1">
          <mxGeometry width="50" height="50" relative="1" as="geometry">
            <mxPoint x="1020" y="560" as="sourcePoint" />
            <mxPoint x="170" y="740" as="targetPoint" />
            <Array as="points">
              <mxPoint x="1420" y="1080" />
              <mxPoint x="100" y="1080" />
            </Array>
          </mxGeometry>
        </mxCell>
        <mxCell id="nStSami3oqOqF6eMbcRC-23" value="Przeglądanie wpisów" style="ellipse;whiteSpace=wrap;html=1;" vertex="1" parent="1">
          <mxGeometry x="280" y="125" width="140" height="70" as="geometry" />
        </mxCell>
        <mxCell id="aj8yj5MGE4CQmLHHnwiA-5" value="Zgłaszanie błędu we wpisie" style="ellipse;whiteSpace=wrap;html=1;" vertex="1" parent="1">
          <mxGeometry x="320" y="600" width="140" height="70" as="geometry" />
        </mxCell>
        <mxCell id="aj8yj5MGE4CQmLHHnwiA-6" value="Logowanie" style="ellipse;whiteSpace=wrap;html=1;" vertex="1" parent="1">
          <mxGeometry x="320" y="840" width="140" height="70" as="geometry" />
        </mxCell>
        <mxCell id="aj8yj5MGE4CQmLHHnwiA-7" value="Rejestracja" style="ellipse;whiteSpace=wrap;html=1;" vertex="1" parent="1">
          <mxGeometry x="560" y="840" width="140" height="70" as="geometry" />
        </mxCell>
        <mxCell id="aj8yj5MGE4CQmLHHnwiA-8" value="Wylogowanie" style="ellipse;whiteSpace=wrap;html=1;" vertex="1" parent="1">
          <mxGeometry x="320" y="920" width="140" height="70" as="geometry" />
        </mxCell>
        <mxCell id="aj8yj5MGE4CQmLHHnwiA-9" value="Edytowanie autorskich wpisów" style="ellipse;whiteSpace=wrap;html=1;" vertex="1" parent="1">
          <mxGeometry x="320" y="761.25" width="140" height="70" as="geometry" />
        </mxCell>
        <mxCell id="aj8yj5MGE4CQmLHHnwiA-29" value="Tworzenie wpisów" style="ellipse;whiteSpace=wrap;html=1;" vertex="1" parent="1">
          <mxGeometry x="320" y="681.25" width="140" height="70" as="geometry" />
        </mxCell>
        <mxCell id="aj8yj5MGE4CQmLHHnwiA-36" value="Obsłużenie zgłoszenia - Zastosowanie zmian we wpisie" style="ellipse;whiteSpace=wrap;html=1;" vertex="1" parent="1">
          <mxGeometry x="1080" y="230" width="160" height="70" as="geometry" />
        </mxCell>
        <mxCell id="aj8yj5MGE4CQmLHHnwiA-37" value="Obsłużenie zgłoszenia - Odrzucenie zgłoszenia" style="ellipse;whiteSpace=wrap;html=1;" vertex="1" parent="1">
          <mxGeometry x="1080" y="310" width="160" height="70" as="geometry" />
        </mxCell>
        <mxCell id="aj8yj5MGE4CQmLHHnwiA-38" value="Przydzielanie zgłoszeń do redaktorów" style="ellipse;whiteSpace=wrap;html=1;" vertex="1" parent="1">
          <mxGeometry x="790" y="125" width="140" height="70" as="geometry" />
        </mxCell>
        <mxCell id="aj8yj5MGE4CQmLHHnwiA-40" value="Ocena wpisu&amp;nbsp;-&amp;nbsp;&lt;br&gt;Zatwierdzenie wpisu" style="ellipse;whiteSpace=wrap;html=1;" vertex="1" parent="1">
          <mxGeometry x="1080" y="390" width="160" height="70" as="geometry" />
        </mxCell>
        <mxCell id="aj8yj5MGE4CQmLHHnwiA-41" value="Ocena wpisu&amp;nbsp;- &lt;br&gt;Odrzucenie wpisu" style="ellipse;whiteSpace=wrap;html=1;" vertex="1" parent="1">
          <mxGeometry x="1080" y="470" width="160" height="70" as="geometry" />
        </mxCell>
        <mxCell id="aj8yj5MGE4CQmLHHnwiA-71" value="powiadomienie o odrzuceniu wpisu" style="html=1;verticalAlign=bottom;endArrow=block;edgeStyle=elbowEdgeStyle;elbow=vertical;curved=0;rounded=0;exitX=0;exitY=0.5;exitDx=0;exitDy=0;entryX=1;entryY=1;entryDx=0;entryDy=0;entryPerimeter=0;dashed=1;dashPattern=1 4;" edge="1" parent="1" source="aj8yj5MGE4CQmLHHnwiA-41" target="nStSami3oqOqF6eMbcRC-1">
          <mxGeometry width="80" relative="1" as="geometry">
            <mxPoint x="730" y="580" as="sourcePoint" />
            <mxPoint x="810" y="580" as="targetPoint" />
            <Array as="points">
              <mxPoint x="610" y="505" />
              <mxPoint x="650" y="530" />
              <mxPoint x="670" y="490" />
              <mxPoint x="850" y="510" />
              <mxPoint x="780" y="520" />
              <mxPoint x="620" y="450" />
              <mxPoint x="860" y="510" />
              <mxPoint x="1000" y="500" />
              <mxPoint x="480" y="460" />
              <mxPoint x="530" y="450" />
              <mxPoint x="750" y="420" />
              <mxPoint x="490" y="1010" />
            </Array>
          </mxGeometry>
        </mxCell>
        <mxCell id="aj8yj5MGE4CQmLHHnwiA-72" value="powiadomienie o zatwierdzeniu wpisu" style="html=1;verticalAlign=bottom;endArrow=block;edgeStyle=elbowEdgeStyle;elbow=vertical;curved=0;rounded=0;exitX=0;exitY=0.5;exitDx=0;exitDy=0;entryX=1;entryY=1;entryDx=0;entryDy=0;entryPerimeter=0;dashed=1;dashPattern=1 4;" edge="1" parent="1" source="aj8yj5MGE4CQmLHHnwiA-40" target="nStSami3oqOqF6eMbcRC-1">
          <mxGeometry x="0.0008" width="80" relative="1" as="geometry">
            <mxPoint x="730" y="580" as="sourcePoint" />
            <mxPoint x="810" y="580" as="targetPoint" />
            <Array as="points">
              <mxPoint x="610" y="425" />
              <mxPoint x="810" y="465" />
              <mxPoint x="810" y="480" />
              <mxPoint x="810" y="465" />
              <mxPoint x="780" y="500" />
              <mxPoint x="660" y="430" />
              <mxPoint x="840" y="490" />
              <mxPoint x="540" y="480" />
              <mxPoint x="580" y="465" />
              <mxPoint x="520" y="440" />
              <mxPoint x="490" y="980" />
              <mxPoint x="640" y="1010" />
            </Array>
            <mxPoint as="offset" />
          </mxGeometry>
        </mxCell>
        <mxCell id="aj8yj5MGE4CQmLHHnwiA-80" value="powiadomienie o odrzuceniu zgłoszenia" style="html=1;verticalAlign=bottom;endArrow=block;edgeStyle=elbowEdgeStyle;elbow=vertical;curved=0;rounded=0;exitX=0;exitY=0.5;exitDx=0;exitDy=0;entryX=1;entryY=1;entryDx=0;entryDy=0;entryPerimeter=0;dashed=1;dashPattern=1 4;" edge="1" parent="1" source="aj8yj5MGE4CQmLHHnwiA-37" target="nStSami3oqOqF6eMbcRC-1">
          <mxGeometry width="80" relative="1" as="geometry">
            <mxPoint x="610" y="580" as="sourcePoint" />
            <mxPoint x="690" y="580" as="targetPoint" />
            <Array as="points">
              <mxPoint x="600" y="345" />
              <mxPoint x="920" y="415" />
              <mxPoint x="700" y="385" />
              <mxPoint x="680" y="360" />
              <mxPoint x="750" y="370" />
              <mxPoint x="800" y="380" />
              <mxPoint x="790" y="455" />
              <mxPoint x="530" y="470" />
            </Array>
          </mxGeometry>
        </mxCell>
        <mxCell id="aj8yj5MGE4CQmLHHnwiA-81" value="powiadomienie o zastosowaniu zmian" style="html=1;verticalAlign=bottom;endArrow=classic;edgeStyle=elbowEdgeStyle;elbow=vertical;curved=0;rounded=0;exitX=0;exitY=0.5;exitDx=0;exitDy=0;entryX=1;entryY=1;entryDx=0;entryDy=0;entryPerimeter=0;dashed=1;dashPattern=1 4;endFill=1;" edge="1" parent="1" source="aj8yj5MGE4CQmLHHnwiA-36" target="nStSami3oqOqF6eMbcRC-1">
          <mxGeometry width="80" relative="1" as="geometry">
            <mxPoint x="610" y="580" as="sourcePoint" />
            <mxPoint x="690" y="580" as="targetPoint" />
            <Array as="points">
              <mxPoint x="610" y="265" />
              <mxPoint x="950" y="330" />
              <mxPoint x="660" y="340" />
              <mxPoint x="800" y="350" />
              <mxPoint x="810" y="360" />
              <mxPoint x="720" y="420" />
            </Array>
          </mxGeometry>
        </mxCell>
        <mxCell id="fEaimUSAjWvNsgS3Jjov-6" style="edgeStyle=orthogonalEdgeStyle;rounded=0;orthogonalLoop=1;jettySize=auto;html=1;entryX=1;entryY=0.5;entryDx=0;entryDy=0;endArrow=none;endFill=0;" edge="1" parent="1" source="fEaimUSAjWvNsgS3Jjov-1" target="fEaimUSAjWvNsgS3Jjov-4">
          <mxGeometry relative="1" as="geometry" />
        </mxCell>
        <mxCell id="bje-6XYZIAR_55hRUe0G-3" style="edgeStyle=orthogonalEdgeStyle;rounded=0;orthogonalLoop=1;jettySize=auto;html=1;entryX=1;entryY=0.5;entryDx=0;entryDy=0;fontSize=12;startSize=8;endSize=8;endArrow=none;endFill=0;" edge="1" parent="1" source="fEaimUSAjWvNsgS3Jjov-1" target="bje-6XYZIAR_55hRUe0G-1">
          <mxGeometry relative="1" as="geometry" />
        </mxCell>
        <mxCell id="fEaimUSAjWvNsgS3Jjov-1" value="Zegar systemowy" style="shape=umlActor;verticalLabelPosition=bottom;verticalAlign=top;html=1;outlineConnect=0;" vertex="1" parent="1">
          <mxGeometry x="1370" y="632.5" width="40" height="80" as="geometry" />
        </mxCell>
        <mxCell id="fEaimUSAjWvNsgS3Jjov-4" value="Zapisywanie daty i godziny&amp;nbsp;utworzenia&lt;br&gt;wpisu" style="ellipse;whiteSpace=wrap;html=1;" vertex="1" parent="1">
          <mxGeometry x="1100" y="675" width="140" height="70" as="geometry" />
        </mxCell>
        <mxCell id="bje-6XYZIAR_55hRUe0G-1" value="Zapisywanie daty i godziny zgłoszenia" style="ellipse;whiteSpace=wrap;html=1;" vertex="1" parent="1">
          <mxGeometry x="1100" y="600" width="140" height="70" as="geometry" />
        </mxCell>
        <mxCell id="Cj6SWdgDqCZp1zJjQAOm-1" value="&amp;lt;&amp;lt;include&amp;gt;&amp;gt;" style="html=1;verticalAlign=bottom;labelBackgroundColor=none;endArrow=open;endFill=0;dashed=1;rounded=0;entryX=0.5;entryY=1;entryDx=0;entryDy=0;exitX=0;exitY=0.5;exitDx=0;exitDy=0;" edge="1" parent="1" source="aj8yj5MGE4CQmLHHnwiA-36" target="aj8yj5MGE4CQmLHHnwiA-38">
          <mxGeometry width="160" relative="1" as="geometry">
            <mxPoint x="1020" y="60" as="sourcePoint" />
            <mxPoint x="1180" y="60" as="targetPoint" />
          </mxGeometry>
        </mxCell>
        <mxCell id="Cj6SWdgDqCZp1zJjQAOm-7" value="&amp;lt;&amp;lt;include&amp;gt;&amp;gt;" style="html=1;verticalAlign=bottom;labelBackgroundColor=none;endArrow=open;endFill=0;dashed=1;rounded=0;entryX=0.5;entryY=1;entryDx=0;entryDy=0;exitX=0;exitY=0.5;exitDx=0;exitDy=0;" edge="1" parent="1" source="aj8yj5MGE4CQmLHHnwiA-37" target="aj8yj5MGE4CQmLHHnwiA-38">
          <mxGeometry width="160" relative="1" as="geometry">
            <mxPoint x="1190" y="100" as="sourcePoint" />
            <mxPoint x="1350" y="100" as="targetPoint" />
          </mxGeometry>
        </mxCell>
        <mxCell id="Cj6SWdgDqCZp1zJjQAOm-8" value="&amp;lt;&amp;lt;include&amp;gt;&amp;gt;" style="html=1;verticalAlign=bottom;labelBackgroundColor=none;endArrow=open;endFill=0;dashed=1;rounded=0;exitX=0;exitY=0.5;exitDx=0;exitDy=0;entryX=1;entryY=0.5;entryDx=0;entryDy=0;" edge="1" parent="1" source="aj8yj5MGE4CQmLHHnwiA-38" target="aj8yj5MGE4CQmLHHnwiA-5">
          <mxGeometry width="160" relative="1" as="geometry">
            <mxPoint x="1020" y="100" as="sourcePoint" />
            <mxPoint x="1180" y="100" as="targetPoint" />
          </mxGeometry>
        </mxCell>
        <mxCell id="Cj6SWdgDqCZp1zJjQAOm-10" value="&amp;lt;&amp;lt;include&amp;gt;&amp;gt;" style="html=1;verticalAlign=bottom;labelBackgroundColor=none;endArrow=open;endFill=0;dashed=1;rounded=0;exitX=0;exitY=0.5;exitDx=0;exitDy=0;entryX=1;entryY=0.5;entryDx=0;entryDy=0;" edge="1" parent="1" source="bje-6XYZIAR_55hRUe0G-1" target="aj8yj5MGE4CQmLHHnwiA-5">
          <mxGeometry width="160" relative="1" as="geometry">
            <mxPoint x="1190" y="133.75" as="sourcePoint" />
            <mxPoint x="1350" y="133.75" as="targetPoint" />
            <mxPoint as="offset" />
          </mxGeometry>
        </mxCell>
        <mxCell id="Cj6SWdgDqCZp1zJjQAOm-11" value="&amp;lt;&amp;lt;include&amp;gt;&amp;gt;" style="html=1;verticalAlign=bottom;labelBackgroundColor=none;endArrow=open;endFill=0;dashed=1;rounded=0;exitX=0;exitY=0.5;exitDx=0;exitDy=0;entryX=1;entryY=0.5;entryDx=0;entryDy=0;" edge="1" parent="1" source="aj8yj5MGE4CQmLHHnwiA-40" target="aj8yj5MGE4CQmLHHnwiA-29">
          <mxGeometry x="-0.0982" y="-1" width="160" relative="1" as="geometry">
            <mxPoint x="970" y="620" as="sourcePoint" />
            <mxPoint x="1130" y="620" as="targetPoint" />
            <mxPoint as="offset" />
          </mxGeometry>
        </mxCell>
        <mxCell id="Cj6SWdgDqCZp1zJjQAOm-13" value="&amp;lt;&amp;lt;include&amp;gt;&amp;gt;" style="html=1;verticalAlign=bottom;labelBackgroundColor=none;endArrow=open;endFill=0;dashed=1;rounded=0;entryX=1;entryY=0.5;entryDx=0;entryDy=0;exitX=0;exitY=0.5;exitDx=0;exitDy=0;" edge="1" parent="1" source="fEaimUSAjWvNsgS3Jjov-4" target="aj8yj5MGE4CQmLHHnwiA-29">
          <mxGeometry width="160" relative="1" as="geometry">
            <mxPoint x="740" y="803.75" as="sourcePoint" />
            <mxPoint x="900" y="803.75" as="targetPoint" />
          </mxGeometry>
        </mxCell>
        <mxCell id="Cj6SWdgDqCZp1zJjQAOm-14" value="&amp;lt;&amp;lt;include&amp;gt;&amp;gt;" style="html=1;verticalAlign=bottom;labelBackgroundColor=none;endArrow=open;endFill=0;dashed=1;rounded=0;entryX=1;entryY=0.5;entryDx=0;entryDy=0;exitX=0;exitY=0.5;exitDx=0;exitDy=0;" edge="1" parent="1" source="aj8yj5MGE4CQmLHHnwiA-41" target="aj8yj5MGE4CQmLHHnwiA-29">
          <mxGeometry x="-0.327" y="-5" width="160" relative="1" as="geometry">
            <mxPoint x="460" y="650" as="sourcePoint" />
            <mxPoint x="620" y="650" as="targetPoint" />
            <mxPoint as="offset" />
          </mxGeometry>
        </mxCell>
        <mxCell id="Cj6SWdgDqCZp1zJjQAOm-15" value="&amp;lt;&amp;lt;include&amp;gt;&amp;gt;" style="html=1;verticalAlign=bottom;labelBackgroundColor=none;endArrow=open;endFill=0;dashed=1;rounded=0;entryX=1;entryY=0.5;entryDx=0;entryDy=0;exitX=0;exitY=0.5;exitDx=0;exitDy=0;" edge="1" parent="1" source="aj8yj5MGE4CQmLHHnwiA-7" target="aj8yj5MGE4CQmLHHnwiA-6">
          <mxGeometry width="160" relative="1" as="geometry">
            <mxPoint x="480" y="628.75" as="sourcePoint" />
            <mxPoint x="640" y="628.75" as="targetPoint" />
          </mxGeometry>
        </mxCell>
        <mxCell id="xaTXbfHzjJ_vACRX4iMH-3" style="edgeStyle=orthogonalEdgeStyle;rounded=0;orthogonalLoop=1;jettySize=auto;html=1;entryX=0.5;entryY=0.5;entryDx=0;entryDy=0;entryPerimeter=0;endArrow=none;endFill=0;" edge="1" parent="1" source="aj8yj5MGE4CQmLHHnwiA-5" target="nStSami3oqOqF6eMbcRC-1">
          <mxGeometry relative="1" as="geometry">
            <Array as="points">
              <mxPoint x="220" y="634.75" />
              <mxPoint x="220" y="794.75" />
            </Array>
          </mxGeometry>
        </mxCell>
        <mxCell id="Yos4sBQ_VOj2rA_qirbj-7" style="edgeStyle=orthogonalEdgeStyle;rounded=0;orthogonalLoop=1;jettySize=auto;html=1;entryX=1;entryY=0.5;entryDx=0;entryDy=0;fontSize=12;startSize=8;endSize=8;endArrow=none;endFill=0;" edge="1" parent="1" source="Yos4sBQ_VOj2rA_qirbj-2" target="Yos4sBQ_VOj2rA_qirbj-4">
          <mxGeometry relative="1" as="geometry" />
        </mxCell>
        <mxCell id="Yos4sBQ_VOj2rA_qirbj-8" style="edgeStyle=orthogonalEdgeStyle;rounded=0;orthogonalLoop=1;jettySize=auto;html=1;entryX=1;entryY=0.5;entryDx=0;entryDy=0;fontSize=12;startSize=8;endSize=8;endArrow=none;endFill=0;" edge="1" parent="1" source="Yos4sBQ_VOj2rA_qirbj-2" target="Yos4sBQ_VOj2rA_qirbj-5">
          <mxGeometry relative="1" as="geometry" />
        </mxCell>
        <mxCell id="Yos4sBQ_VOj2rA_qirbj-2" value="Administrator" style="shape=umlActor;verticalLabelPosition=bottom;verticalAlign=top;html=1;outlineConnect=0;" vertex="1" parent="1">
          <mxGeometry x="1370" y="835" width="40" height="80" as="geometry" />
        </mxCell>
        <mxCell id="Yos4sBQ_VOj2rA_qirbj-4" value="Nadanie zalogowanemu użytkownikowi roli Redaktora" style="ellipse;whiteSpace=wrap;html=1;" vertex="1" parent="1">
          <mxGeometry x="1100" y="803.75" width="140" height="70" as="geometry" />
        </mxCell>
        <mxCell id="Yos4sBQ_VOj2rA_qirbj-5" value="Nadanie redaktorowi roli Redaktora naczelnego" style="ellipse;whiteSpace=wrap;html=1;" vertex="1" parent="1">
          <mxGeometry x="1100" y="876.25" width="140" height="70" as="geometry" />
        </mxCell>
      </root>
    </mxGraphModel>
  </diagram>
  <diagram name="Copy of UC" id="yOXN694o-h7-0wSIvGOV">
    <mxGraphModel grid="1" page="1" gridSize="10" guides="1" tooltips="1" connect="1" arrows="1" fold="1" pageScale="1" pageWidth="1500" pageHeight="1100" math="0" shadow="0">
      <root>
        <mxCell id="OBgyyZMcBRxCit8kWDZO-0" />
        <mxCell id="OBgyyZMcBRxCit8kWDZO-1" parent="OBgyyZMcBRxCit8kWDZO-0" />
        <mxCell id="OBgyyZMcBRxCit8kWDZO-2" value="" style="edgeStyle=orthogonalEdgeStyle;rounded=0;orthogonalLoop=1;jettySize=auto;html=1;" edge="1" parent="OBgyyZMcBRxCit8kWDZO-1" source="OBgyyZMcBRxCit8kWDZO-7" target="OBgyyZMcBRxCit8kWDZO-10">
          <mxGeometry relative="1" as="geometry" />
        </mxCell>
        <mxCell id="OBgyyZMcBRxCit8kWDZO-3" style="edgeStyle=orthogonalEdgeStyle;rounded=0;orthogonalLoop=1;jettySize=auto;html=1;entryX=0;entryY=0.5;entryDx=0;entryDy=0;endArrow=none;endFill=0;" edge="1" parent="OBgyyZMcBRxCit8kWDZO-1" source="OBgyyZMcBRxCit8kWDZO-7" target="OBgyyZMcBRxCit8kWDZO-22">
          <mxGeometry relative="1" as="geometry" />
        </mxCell>
        <mxCell id="OBgyyZMcBRxCit8kWDZO-4" style="edgeStyle=orthogonalEdgeStyle;rounded=0;orthogonalLoop=1;jettySize=auto;html=1;entryX=0;entryY=0.5;entryDx=0;entryDy=0;endArrow=none;endFill=0;" edge="1" parent="OBgyyZMcBRxCit8kWDZO-1" source="OBgyyZMcBRxCit8kWDZO-7" target="OBgyyZMcBRxCit8kWDZO-24">
          <mxGeometry relative="1" as="geometry" />
        </mxCell>
        <mxCell id="OBgyyZMcBRxCit8kWDZO-5" style="edgeStyle=orthogonalEdgeStyle;rounded=0;orthogonalLoop=1;jettySize=auto;html=1;entryX=0;entryY=0.5;entryDx=0;entryDy=0;endArrow=none;endFill=0;exitX=0.5;exitY=0.5;exitDx=0;exitDy=0;exitPerimeter=0;" edge="1" parent="OBgyyZMcBRxCit8kWDZO-1" source="OBgyyZMcBRxCit8kWDZO-7" target="OBgyyZMcBRxCit8kWDZO-25">
          <mxGeometry relative="1" as="geometry">
            <Array as="points">
              <mxPoint x="320" y="771" />
            </Array>
          </mxGeometry>
        </mxCell>
        <mxCell id="OBgyyZMcBRxCit8kWDZO-6" style="edgeStyle=orthogonalEdgeStyle;rounded=0;orthogonalLoop=1;jettySize=auto;html=1;entryX=0;entryY=0.429;entryDx=0;entryDy=0;endArrow=none;endFill=0;entryPerimeter=0;exitX=0.5;exitY=0.5;exitDx=0;exitDy=0;exitPerimeter=0;" edge="1" parent="OBgyyZMcBRxCit8kWDZO-1" source="OBgyyZMcBRxCit8kWDZO-7" target="OBgyyZMcBRxCit8kWDZO-26">
          <mxGeometry relative="1" as="geometry">
            <Array as="points">
              <mxPoint x="220" y="771" />
              <mxPoint x="220" y="659" />
            </Array>
            <mxPoint x="120" y="778" as="sourcePoint" />
            <mxPoint x="540" y="748" as="targetPoint" />
          </mxGeometry>
        </mxCell>
        <mxCell id="OBgyyZMcBRxCit8kWDZO-7" value="Zalogowany użytkownik" style="shape=umlActor;verticalLabelPosition=bottom;verticalAlign=top;html=1;" vertex="1" parent="OBgyyZMcBRxCit8kWDZO-1">
          <mxGeometry x="80" y="731" width="40" height="80" as="geometry" />
        </mxCell>
        <mxCell id="OBgyyZMcBRxCit8kWDZO-8" value="System" style="shape=umlFrame;whiteSpace=wrap;html=1;pointerEvents=0;strokeWidth=4;" vertex="1" parent="OBgyyZMcBRxCit8kWDZO-1">
          <mxGeometry x="160" y="40" width="1200" height="1000" as="geometry" />
        </mxCell>
        <mxCell id="OBgyyZMcBRxCit8kWDZO-9" style="edgeStyle=orthogonalEdgeStyle;rounded=0;orthogonalLoop=1;jettySize=auto;html=1;entryX=0;entryY=0.5;entryDx=0;entryDy=0;endArrow=none;endFill=0;" edge="1" parent="OBgyyZMcBRxCit8kWDZO-1" source="OBgyyZMcBRxCit8kWDZO-10" target="OBgyyZMcBRxCit8kWDZO-20">
          <mxGeometry relative="1" as="geometry" />
        </mxCell>
        <mxCell id="OBgyyZMcBRxCit8kWDZO-10" value="Użytkownik" style="shape=umlActor;verticalLabelPosition=bottom;verticalAlign=top;html=1;allowArrows=1;" vertex="1" parent="OBgyyZMcBRxCit8kWDZO-1">
          <mxGeometry x="80" y="120" width="40" height="80" as="geometry" />
        </mxCell>
        <mxCell id="OBgyyZMcBRxCit8kWDZO-11" value="" style="edgeStyle=orthogonalEdgeStyle;rounded=0;orthogonalLoop=1;jettySize=auto;html=1;startArrow=classic;startFill=1;endArrow=none;endFill=0;" edge="1" parent="OBgyyZMcBRxCit8kWDZO-1" source="OBgyyZMcBRxCit8kWDZO-16" target="OBgyyZMcBRxCit8kWDZO-18">
          <mxGeometry relative="1" as="geometry" />
        </mxCell>
        <mxCell id="OBgyyZMcBRxCit8kWDZO-12" style="edgeStyle=orthogonalEdgeStyle;rounded=0;orthogonalLoop=1;jettySize=auto;html=1;entryX=1;entryY=0.5;entryDx=0;entryDy=0;fontSize=12;startSize=8;endSize=8;endArrow=none;endFill=0;" edge="1" parent="OBgyyZMcBRxCit8kWDZO-1" source="OBgyyZMcBRxCit8kWDZO-16" target="OBgyyZMcBRxCit8kWDZO-27">
          <mxGeometry relative="1" as="geometry" />
        </mxCell>
        <mxCell id="OBgyyZMcBRxCit8kWDZO-13" style="edgeStyle=orthogonalEdgeStyle;rounded=0;orthogonalLoop=1;jettySize=auto;html=1;entryX=1;entryY=0.5;entryDx=0;entryDy=0;fontSize=12;startSize=8;endSize=8;endArrow=none;endFill=0;" edge="1" parent="OBgyyZMcBRxCit8kWDZO-1" source="OBgyyZMcBRxCit8kWDZO-16" target="OBgyyZMcBRxCit8kWDZO-28">
          <mxGeometry relative="1" as="geometry" />
        </mxCell>
        <mxCell id="OBgyyZMcBRxCit8kWDZO-14" style="edgeStyle=orthogonalEdgeStyle;rounded=0;orthogonalLoop=1;jettySize=auto;html=1;entryX=1;entryY=0.5;entryDx=0;entryDy=0;fontSize=12;startSize=8;endSize=8;endArrow=none;endFill=0;" edge="1" parent="OBgyyZMcBRxCit8kWDZO-1" source="OBgyyZMcBRxCit8kWDZO-16" target="OBgyyZMcBRxCit8kWDZO-30">
          <mxGeometry relative="1" as="geometry" />
        </mxCell>
        <mxCell id="OBgyyZMcBRxCit8kWDZO-15" style="edgeStyle=orthogonalEdgeStyle;rounded=0;orthogonalLoop=1;jettySize=auto;html=1;entryX=1;entryY=0.5;entryDx=0;entryDy=0;fontSize=12;startSize=8;endSize=8;endArrow=none;endFill=0;" edge="1" parent="OBgyyZMcBRxCit8kWDZO-1" source="OBgyyZMcBRxCit8kWDZO-16" target="OBgyyZMcBRxCit8kWDZO-31">
          <mxGeometry relative="1" as="geometry" />
        </mxCell>
        <mxCell id="OBgyyZMcBRxCit8kWDZO-16" value="Redaktor" style="shape=umlActor;verticalLabelPosition=bottom;verticalAlign=top;html=1;" vertex="1" parent="OBgyyZMcBRxCit8kWDZO-1">
          <mxGeometry x="1400" y="360" width="40" height="80" as="geometry" />
        </mxCell>
        <mxCell id="OBgyyZMcBRxCit8kWDZO-17" style="edgeStyle=orthogonalEdgeStyle;rounded=0;orthogonalLoop=1;jettySize=auto;html=1;entryX=1;entryY=0.5;entryDx=0;entryDy=0;endArrow=none;endFill=0;" edge="1" parent="OBgyyZMcBRxCit8kWDZO-1" source="OBgyyZMcBRxCit8kWDZO-18" target="OBgyyZMcBRxCit8kWDZO-29">
          <mxGeometry relative="1" as="geometry" />
        </mxCell>
        <mxCell id="OBgyyZMcBRxCit8kWDZO-18" value="Redaktor naczelny&lt;br&gt;" style="shape=umlActor;verticalLabelPosition=bottom;verticalAlign=top;html=1;" vertex="1" parent="OBgyyZMcBRxCit8kWDZO-1">
          <mxGeometry x="1400" y="120" width="40" height="80" as="geometry" />
        </mxCell>
        <mxCell id="OBgyyZMcBRxCit8kWDZO-19" value="" style="endArrow=classic;html=1;rounded=0;startArrow=none;startFill=0;endFill=1;" edge="1" parent="OBgyyZMcBRxCit8kWDZO-1" source="OBgyyZMcBRxCit8kWDZO-16" target="OBgyyZMcBRxCit8kWDZO-7">
          <mxGeometry width="50" height="50" relative="1" as="geometry">
            <mxPoint x="1020" y="560" as="sourcePoint" />
            <mxPoint x="170" y="740" as="targetPoint" />
            <Array as="points">
              <mxPoint x="1420" y="1080" />
              <mxPoint x="100" y="1080" />
            </Array>
          </mxGeometry>
        </mxCell>
        <mxCell id="OBgyyZMcBRxCit8kWDZO-20" value="Przeglądanie wpisów" style="ellipse;whiteSpace=wrap;html=1;" vertex="1" parent="OBgyyZMcBRxCit8kWDZO-1">
          <mxGeometry x="280" y="125" width="140" height="70" as="geometry" />
        </mxCell>
        <mxCell id="OBgyyZMcBRxCit8kWDZO-21" value="Zgłaszanie błędu we wpisie" style="ellipse;whiteSpace=wrap;html=1;" vertex="1" parent="OBgyyZMcBRxCit8kWDZO-1">
          <mxGeometry x="320" y="549.13" width="140" height="67.5" as="geometry" />
        </mxCell>
        <mxCell id="OBgyyZMcBRxCit8kWDZO-22" value="Logowanie" style="ellipse;whiteSpace=wrap;html=1;" vertex="1" parent="OBgyyZMcBRxCit8kWDZO-1">
          <mxGeometry x="320" y="821.63" width="140" height="70" as="geometry" />
        </mxCell>
        <mxCell id="OBgyyZMcBRxCit8kWDZO-23" value="Rejestracja" style="ellipse;whiteSpace=wrap;html=1;" vertex="1" parent="OBgyyZMcBRxCit8kWDZO-1">
          <mxGeometry x="540" y="821.63" width="140" height="70" as="geometry" />
        </mxCell>
        <mxCell id="OBgyyZMcBRxCit8kWDZO-24" value="Wylogowanie" style="ellipse;whiteSpace=wrap;html=1;" vertex="1" parent="OBgyyZMcBRxCit8kWDZO-1">
          <mxGeometry x="320" y="922.88" width="140" height="70" as="geometry" />
        </mxCell>
        <mxCell id="OBgyyZMcBRxCit8kWDZO-25" value="Edytowanie autorskich wpisów" style="ellipse;whiteSpace=wrap;html=1;" vertex="1" parent="OBgyyZMcBRxCit8kWDZO-1">
          <mxGeometry x="320" y="739.13" width="140" height="70" as="geometry" />
        </mxCell>
        <mxCell id="OBgyyZMcBRxCit8kWDZO-26" value="Tworzenie wpisów" style="ellipse;whiteSpace=wrap;html=1;" vertex="1" parent="OBgyyZMcBRxCit8kWDZO-1">
          <mxGeometry x="320" y="629.13" width="140" height="70" as="geometry" />
        </mxCell>
        <mxCell id="OBgyyZMcBRxCit8kWDZO-27" value="Obsłużenie zgłoszenia - Zastosowanie zmian we wpisie" style="ellipse;whiteSpace=wrap;html=1;" vertex="1" parent="OBgyyZMcBRxCit8kWDZO-1">
          <mxGeometry x="1080" y="230" width="160" height="70" as="geometry" />
        </mxCell>
        <mxCell id="OBgyyZMcBRxCit8kWDZO-28" value="Obsłużenie zgłoszenia - Odrzucenie zgłoszenia" style="ellipse;whiteSpace=wrap;html=1;" vertex="1" parent="OBgyyZMcBRxCit8kWDZO-1">
          <mxGeometry x="1080" y="310" width="160" height="70" as="geometry" />
        </mxCell>
        <mxCell id="OBgyyZMcBRxCit8kWDZO-29" value="Przydzielanie zgłoszeń do redaktorów" style="ellipse;whiteSpace=wrap;html=1;" vertex="1" parent="OBgyyZMcBRxCit8kWDZO-1">
          <mxGeometry x="760" y="120" width="200" height="80" as="geometry" />
        </mxCell>
        <mxCell id="OBgyyZMcBRxCit8kWDZO-30" value="Ocena wpisu&amp;nbsp;-&amp;nbsp;&lt;br&gt;Zatwierdzenie wpisu" style="ellipse;whiteSpace=wrap;html=1;" vertex="1" parent="OBgyyZMcBRxCit8kWDZO-1">
          <mxGeometry x="1080" y="390" width="160" height="70" as="geometry" />
        </mxCell>
        <mxCell id="OBgyyZMcBRxCit8kWDZO-31" value="Ocena wpisu&amp;nbsp;- &lt;br&gt;Odrzucenie wpisu" style="ellipse;whiteSpace=wrap;html=1;" vertex="1" parent="OBgyyZMcBRxCit8kWDZO-1">
          <mxGeometry x="1080" y="470" width="160" height="70" as="geometry" />
        </mxCell>
        <mxCell id="OBgyyZMcBRxCit8kWDZO-32" value="powiadomienie o odrzuceniu wpisu" style="html=1;verticalAlign=bottom;endArrow=block;edgeStyle=elbowEdgeStyle;elbow=vertical;curved=0;rounded=0;exitX=0;exitY=0.5;exitDx=0;exitDy=0;entryX=1;entryY=1;entryDx=0;entryDy=0;entryPerimeter=0;dashed=1;dashPattern=1 4;" edge="1" parent="OBgyyZMcBRxCit8kWDZO-1" source="OBgyyZMcBRxCit8kWDZO-31" target="OBgyyZMcBRxCit8kWDZO-7">
          <mxGeometry width="80" relative="1" as="geometry">
            <mxPoint x="730" y="580" as="sourcePoint" />
            <mxPoint x="810" y="580" as="targetPoint" />
            <Array as="points">
              <mxPoint x="610" y="505" />
              <mxPoint x="650" y="530" />
              <mxPoint x="670" y="490" />
              <mxPoint x="850" y="510" />
              <mxPoint x="780" y="520" />
              <mxPoint x="620" y="450" />
              <mxPoint x="860" y="510" />
              <mxPoint x="1000" y="500" />
              <mxPoint x="480" y="460" />
              <mxPoint x="530" y="450" />
              <mxPoint x="750" y="420" />
              <mxPoint x="490" y="1010" />
            </Array>
          </mxGeometry>
        </mxCell>
        <mxCell id="OBgyyZMcBRxCit8kWDZO-33" value="powiadomienie o zatwierdzeniu wpisu" style="html=1;verticalAlign=bottom;endArrow=block;edgeStyle=elbowEdgeStyle;elbow=vertical;curved=0;rounded=0;exitX=0;exitY=0.5;exitDx=0;exitDy=0;entryX=1;entryY=1;entryDx=0;entryDy=0;entryPerimeter=0;dashed=1;dashPattern=1 4;" edge="1" parent="OBgyyZMcBRxCit8kWDZO-1" source="OBgyyZMcBRxCit8kWDZO-30" target="OBgyyZMcBRxCit8kWDZO-7">
          <mxGeometry x="0.0008" width="80" relative="1" as="geometry">
            <mxPoint x="730" y="580" as="sourcePoint" />
            <mxPoint x="810" y="580" as="targetPoint" />
            <Array as="points">
              <mxPoint x="610" y="425" />
              <mxPoint x="810" y="465" />
              <mxPoint x="810" y="480" />
              <mxPoint x="810" y="465" />
              <mxPoint x="780" y="500" />
              <mxPoint x="660" y="430" />
              <mxPoint x="840" y="490" />
              <mxPoint x="540" y="480" />
              <mxPoint x="580" y="465" />
              <mxPoint x="520" y="440" />
              <mxPoint x="490" y="980" />
              <mxPoint x="640" y="1010" />
            </Array>
            <mxPoint as="offset" />
          </mxGeometry>
        </mxCell>
        <mxCell id="OBgyyZMcBRxCit8kWDZO-34" value="powiadomienie o odrzuceniu zgłoszenia" style="html=1;verticalAlign=bottom;endArrow=block;edgeStyle=elbowEdgeStyle;elbow=vertical;curved=0;rounded=0;exitX=0;exitY=0.5;exitDx=0;exitDy=0;entryX=1;entryY=1;entryDx=0;entryDy=0;entryPerimeter=0;dashed=1;dashPattern=1 4;" edge="1" parent="OBgyyZMcBRxCit8kWDZO-1" source="OBgyyZMcBRxCit8kWDZO-28" target="OBgyyZMcBRxCit8kWDZO-7">
          <mxGeometry width="80" relative="1" as="geometry">
            <mxPoint x="610" y="580" as="sourcePoint" />
            <mxPoint x="690" y="580" as="targetPoint" />
            <Array as="points">
              <mxPoint x="600" y="345" />
              <mxPoint x="920" y="415" />
              <mxPoint x="700" y="385" />
              <mxPoint x="680" y="360" />
              <mxPoint x="750" y="370" />
              <mxPoint x="800" y="380" />
              <mxPoint x="790" y="455" />
              <mxPoint x="530" y="470" />
            </Array>
          </mxGeometry>
        </mxCell>
        <mxCell id="OBgyyZMcBRxCit8kWDZO-35" value="powiadomienie o zastosowaniu zmian" style="html=1;verticalAlign=bottom;endArrow=classic;edgeStyle=elbowEdgeStyle;elbow=vertical;curved=0;rounded=0;exitX=0;exitY=0.5;exitDx=0;exitDy=0;entryX=1;entryY=1;entryDx=0;entryDy=0;entryPerimeter=0;dashed=1;dashPattern=1 4;endFill=1;" edge="1" parent="OBgyyZMcBRxCit8kWDZO-1" source="OBgyyZMcBRxCit8kWDZO-27" target="OBgyyZMcBRxCit8kWDZO-7">
          <mxGeometry width="80" relative="1" as="geometry">
            <mxPoint x="610" y="580" as="sourcePoint" />
            <mxPoint x="690" y="580" as="targetPoint" />
            <Array as="points">
              <mxPoint x="610" y="265" />
              <mxPoint x="950" y="330" />
              <mxPoint x="660" y="340" />
              <mxPoint x="800" y="350" />
              <mxPoint x="810" y="360" />
              <mxPoint x="720" y="420" />
            </Array>
          </mxGeometry>
        </mxCell>
        <mxCell id="OBgyyZMcBRxCit8kWDZO-36" style="edgeStyle=orthogonalEdgeStyle;rounded=0;orthogonalLoop=1;jettySize=auto;html=1;entryX=1;entryY=0.5;entryDx=0;entryDy=0;endArrow=none;endFill=0;" edge="1" parent="OBgyyZMcBRxCit8kWDZO-1" source="OBgyyZMcBRxCit8kWDZO-38" target="OBgyyZMcBRxCit8kWDZO-39">
          <mxGeometry relative="1" as="geometry" />
        </mxCell>
        <mxCell id="OBgyyZMcBRxCit8kWDZO-37" style="edgeStyle=orthogonalEdgeStyle;rounded=0;orthogonalLoop=1;jettySize=auto;html=1;entryX=1;entryY=0.5;entryDx=0;entryDy=0;fontSize=12;startSize=8;endSize=8;endArrow=none;endFill=0;" edge="1" parent="OBgyyZMcBRxCit8kWDZO-1" source="OBgyyZMcBRxCit8kWDZO-38" target="OBgyyZMcBRxCit8kWDZO-40">
          <mxGeometry relative="1" as="geometry" />
        </mxCell>
        <mxCell id="OBgyyZMcBRxCit8kWDZO-38" value="Zegar systemowy" style="shape=umlActor;verticalLabelPosition=bottom;verticalAlign=top;html=1;outlineConnect=0;" vertex="1" parent="OBgyyZMcBRxCit8kWDZO-1">
          <mxGeometry x="1370" y="822.5" width="40" height="80" as="geometry" />
        </mxCell>
        <mxCell id="OBgyyZMcBRxCit8kWDZO-39" value="Zapisywanie daty i godziny&amp;nbsp;utworzenia&lt;br&gt;wpisu" style="ellipse;whiteSpace=wrap;html=1;" vertex="1" parent="OBgyyZMcBRxCit8kWDZO-1">
          <mxGeometry x="1100" y="865" width="140" height="70" as="geometry" />
        </mxCell>
        <mxCell id="OBgyyZMcBRxCit8kWDZO-40" value="Zapisywanie daty i godziny zgłoszenia" style="ellipse;whiteSpace=wrap;html=1;" vertex="1" parent="OBgyyZMcBRxCit8kWDZO-1">
          <mxGeometry x="1100" y="790" width="140" height="70" as="geometry" />
        </mxCell>
        <mxCell id="OBgyyZMcBRxCit8kWDZO-41" value="&amp;lt;&amp;lt;include&amp;gt;&amp;gt;" style="html=1;verticalAlign=bottom;labelBackgroundColor=none;endArrow=open;endFill=0;dashed=1;rounded=0;entryX=1;entryY=1;entryDx=0;entryDy=0;exitX=0;exitY=0.5;exitDx=0;exitDy=0;" edge="1" parent="OBgyyZMcBRxCit8kWDZO-1" source="OBgyyZMcBRxCit8kWDZO-27" target="OBgyyZMcBRxCit8kWDZO-29">
          <mxGeometry x="0.3501" y="-12" width="160" relative="1" as="geometry">
            <mxPoint x="1020" y="60" as="sourcePoint" />
            <mxPoint x="1180" y="60" as="targetPoint" />
            <mxPoint as="offset" />
          </mxGeometry>
        </mxCell>
        <mxCell id="OBgyyZMcBRxCit8kWDZO-42" value="&amp;lt;&amp;lt;include&amp;gt;&amp;gt;" style="html=1;verticalAlign=bottom;labelBackgroundColor=none;endArrow=open;endFill=0;dashed=1;rounded=0;entryX=1;entryY=1;entryDx=0;entryDy=0;exitX=0;exitY=0.5;exitDx=0;exitDy=0;" edge="1" parent="OBgyyZMcBRxCit8kWDZO-1" source="OBgyyZMcBRxCit8kWDZO-28" target="OBgyyZMcBRxCit8kWDZO-29">
          <mxGeometry x="0.5342" y="8" width="160" relative="1" as="geometry">
            <mxPoint x="1190" y="100" as="sourcePoint" />
            <mxPoint x="1350" y="100" as="targetPoint" />
            <mxPoint as="offset" />
          </mxGeometry>
        </mxCell>
        <mxCell id="OBgyyZMcBRxCit8kWDZO-43" value="&amp;lt;&amp;lt;include&amp;gt;&amp;gt;" style="html=1;verticalAlign=bottom;labelBackgroundColor=none;endArrow=open;endFill=0;dashed=1;rounded=0;exitX=0;exitY=0.5;exitDx=0;exitDy=0;entryX=1;entryY=0;entryDx=0;entryDy=0;" edge="1" parent="OBgyyZMcBRxCit8kWDZO-1" source="OBgyyZMcBRxCit8kWDZO-29" target="OBgyyZMcBRxCit8kWDZO-21">
          <mxGeometry x="0.1386" y="-8" width="160" relative="1" as="geometry">
            <mxPoint x="1020" y="100" as="sourcePoint" />
            <mxPoint x="1180" y="100" as="targetPoint" />
            <mxPoint as="offset" />
          </mxGeometry>
        </mxCell>
        <mxCell id="OBgyyZMcBRxCit8kWDZO-44" value="&amp;lt;&amp;lt;include&amp;gt;&amp;gt;" style="html=1;verticalAlign=bottom;labelBackgroundColor=none;endArrow=open;endFill=0;dashed=1;rounded=0;exitX=0;exitY=0.5;exitDx=0;exitDy=0;entryX=1;entryY=1;entryDx=0;entryDy=0;" edge="1" parent="OBgyyZMcBRxCit8kWDZO-1" source="OBgyyZMcBRxCit8kWDZO-40" target="OBgyyZMcBRxCit8kWDZO-21">
          <mxGeometry x="-0.2453" width="160" relative="1" as="geometry">
            <mxPoint x="1190" y="133.75" as="sourcePoint" />
            <mxPoint x="1350" y="133.75" as="targetPoint" />
            <mxPoint x="-1" as="offset" />
          </mxGeometry>
        </mxCell>
        <mxCell id="OBgyyZMcBRxCit8kWDZO-45" value="&amp;lt;&amp;lt;include&amp;gt;&amp;gt;" style="html=1;verticalAlign=bottom;labelBackgroundColor=none;endArrow=open;endFill=0;dashed=1;rounded=0;exitX=0;exitY=0.5;exitDx=0;exitDy=0;entryX=1;entryY=0.5;entryDx=0;entryDy=0;" edge="1" parent="OBgyyZMcBRxCit8kWDZO-1" source="OBgyyZMcBRxCit8kWDZO-30" target="OBgyyZMcBRxCit8kWDZO-26">
          <mxGeometry x="-0.0982" y="-1" width="160" relative="1" as="geometry">
            <mxPoint x="970" y="620" as="sourcePoint" />
            <mxPoint x="1130" y="620" as="targetPoint" />
            <mxPoint as="offset" />
          </mxGeometry>
        </mxCell>
        <mxCell id="OBgyyZMcBRxCit8kWDZO-46" value="&amp;lt;&amp;lt;include&amp;gt;&amp;gt;" style="html=1;verticalAlign=bottom;labelBackgroundColor=none;endArrow=open;endFill=0;dashed=1;rounded=0;entryX=1;entryY=0.5;entryDx=0;entryDy=0;exitX=0;exitY=0.5;exitDx=0;exitDy=0;" edge="1" parent="OBgyyZMcBRxCit8kWDZO-1" source="OBgyyZMcBRxCit8kWDZO-39" target="OBgyyZMcBRxCit8kWDZO-26">
          <mxGeometry x="0.4769" y="-1" width="160" relative="1" as="geometry">
            <mxPoint x="740" y="803.75" as="sourcePoint" />
            <mxPoint x="900" y="803.75" as="targetPoint" />
            <mxPoint as="offset" />
          </mxGeometry>
        </mxCell>
        <mxCell id="OBgyyZMcBRxCit8kWDZO-47" value="&amp;lt;&amp;lt;include&amp;gt;&amp;gt;" style="html=1;verticalAlign=bottom;labelBackgroundColor=none;endArrow=open;endFill=0;dashed=1;rounded=0;entryX=1;entryY=0.5;entryDx=0;entryDy=0;exitX=0;exitY=0.5;exitDx=0;exitDy=0;" edge="1" parent="OBgyyZMcBRxCit8kWDZO-1" source="OBgyyZMcBRxCit8kWDZO-31" target="OBgyyZMcBRxCit8kWDZO-26">
          <mxGeometry x="-0.3329" y="7" width="160" relative="1" as="geometry">
            <mxPoint x="460" y="650" as="sourcePoint" />
            <mxPoint x="620" y="650" as="targetPoint" />
            <mxPoint as="offset" />
          </mxGeometry>
        </mxCell>
        <mxCell id="OBgyyZMcBRxCit8kWDZO-48" value="&amp;lt;&amp;lt;include&amp;gt;&amp;gt;" style="html=1;verticalAlign=bottom;labelBackgroundColor=none;endArrow=open;endFill=0;dashed=1;rounded=0;entryX=1;entryY=0.5;entryDx=0;entryDy=0;exitX=0;exitY=0.5;exitDx=0;exitDy=0;" edge="1" parent="OBgyyZMcBRxCit8kWDZO-1" source="OBgyyZMcBRxCit8kWDZO-23" target="OBgyyZMcBRxCit8kWDZO-22">
          <mxGeometry width="160" relative="1" as="geometry">
            <mxPoint x="480" y="600.38" as="sourcePoint" />
            <mxPoint x="640" y="600.38" as="targetPoint" />
          </mxGeometry>
        </mxCell>
        <mxCell id="OBgyyZMcBRxCit8kWDZO-49" style="edgeStyle=orthogonalEdgeStyle;rounded=0;orthogonalLoop=1;jettySize=auto;html=1;entryX=0.5;entryY=0.5;entryDx=0;entryDy=0;entryPerimeter=0;endArrow=none;endFill=0;exitX=0;exitY=0.5;exitDx=0;exitDy=0;" edge="1" parent="OBgyyZMcBRxCit8kWDZO-1" source="OBgyyZMcBRxCit8kWDZO-21" target="OBgyyZMcBRxCit8kWDZO-7">
          <mxGeometry relative="1" as="geometry">
            <Array as="points">
              <mxPoint x="220" y="583" />
              <mxPoint x="220" y="771" />
            </Array>
          </mxGeometry>
        </mxCell>
        <mxCell id="OBgyyZMcBRxCit8kWDZO-50" style="edgeStyle=orthogonalEdgeStyle;rounded=0;orthogonalLoop=1;jettySize=auto;html=1;entryX=1;entryY=0.5;entryDx=0;entryDy=0;fontSize=12;startSize=8;endSize=8;endArrow=none;endFill=0;" edge="1" parent="OBgyyZMcBRxCit8kWDZO-1" source="OBgyyZMcBRxCit8kWDZO-52" target="OBgyyZMcBRxCit8kWDZO-53">
          <mxGeometry relative="1" as="geometry" />
        </mxCell>
        <mxCell id="OBgyyZMcBRxCit8kWDZO-51" style="edgeStyle=orthogonalEdgeStyle;rounded=0;orthogonalLoop=1;jettySize=auto;html=1;entryX=1;entryY=0.5;entryDx=0;entryDy=0;fontSize=12;startSize=8;endSize=8;endArrow=none;endFill=0;" edge="1" parent="OBgyyZMcBRxCit8kWDZO-1" source="OBgyyZMcBRxCit8kWDZO-52" target="OBgyyZMcBRxCit8kWDZO-54">
          <mxGeometry relative="1" as="geometry" />
        </mxCell>
        <mxCell id="OBgyyZMcBRxCit8kWDZO-52" value="Administrator" style="shape=umlActor;verticalLabelPosition=bottom;verticalAlign=top;html=1;outlineConnect=0;" vertex="1" parent="OBgyyZMcBRxCit8kWDZO-1">
          <mxGeometry x="1370" y="620" width="40" height="80" as="geometry" />
        </mxCell>
        <mxCell id="OBgyyZMcBRxCit8kWDZO-53" value="Nadanie zalogowanemu użytkownikowi roli Redaktora" style="ellipse;whiteSpace=wrap;html=1;" vertex="1" parent="OBgyyZMcBRxCit8kWDZO-1">
          <mxGeometry x="1100" y="680" width="140" height="70" as="geometry" />
        </mxCell>
        <mxCell id="OBgyyZMcBRxCit8kWDZO-54" value="Nadanie redaktorowi roli Redaktora naczelnego" style="ellipse;whiteSpace=wrap;html=1;" vertex="1" parent="OBgyyZMcBRxCit8kWDZO-1">
          <mxGeometry x="1100" y="566.88" width="140" height="70" as="geometry" />
        </mxCell>
        <mxCell id="BzIvOi8LFhrP6mOLUqkQ-1" value="&amp;lt;&amp;lt;include&amp;gt;&amp;gt;" style="html=1;verticalAlign=bottom;labelBackgroundColor=none;endArrow=open;endFill=0;dashed=1;rounded=0;exitX=0.5;exitY=0;exitDx=0;exitDy=0;entryX=0.5;entryY=1;entryDx=0;entryDy=0;" edge="1" parent="OBgyyZMcBRxCit8kWDZO-1" source="OBgyyZMcBRxCit8kWDZO-24" target="OBgyyZMcBRxCit8kWDZO-22">
          <mxGeometry x="-0.6552" width="160" relative="1" as="geometry">
            <mxPoint x="670" y="536.63" as="sourcePoint" />
            <mxPoint x="830" y="536.63" as="targetPoint" />
            <mxPoint as="offset" />
          </mxGeometry>
        </mxCell>
        <mxCell id="BzIvOi8LFhrP6mOLUqkQ-5" value="" style="html=1;verticalAlign=bottom;endArrow=none;elbow=vertical;rounded=0;endFill=0;exitX=0.5;exitY=1;exitDx=0;exitDy=0;entryX=1;entryY=1;entryDx=0;entryDy=0;entryPerimeter=0;edgeStyle=orthogonalEdgeStyle;" edge="1" parent="OBgyyZMcBRxCit8kWDZO-1" source="OBgyyZMcBRxCit8kWDZO-53" target="OBgyyZMcBRxCit8kWDZO-7">
          <mxGeometry x="0.0526" y="50" width="80" relative="1" as="geometry">
            <mxPoint x="920" y="845" as="sourcePoint" />
            <mxPoint x="920" y="925" as="targetPoint" />
            <Array as="points">
              <mxPoint x="1170" y="770" />
              <mxPoint x="1050" y="770" />
              <mxPoint x="1050" y="1010" />
              <mxPoint x="180" y="1010" />
              <mxPoint x="180" y="810" />
            </Array>
            <mxPoint as="offset" />
          </mxGeometry>
        </mxCell>
        <mxCell id="BzIvOi8LFhrP6mOLUqkQ-7" value="" style="html=1;verticalAlign=bottom;endArrow=none;elbow=vertical;rounded=0;endFill=0;exitX=0;exitY=0.5;exitDx=0;exitDy=0;entryX=0;entryY=1;entryDx=0;entryDy=0;entryPerimeter=0;edgeStyle=orthogonalEdgeStyle;" edge="1" parent="OBgyyZMcBRxCit8kWDZO-1" source="OBgyyZMcBRxCit8kWDZO-54" target="OBgyyZMcBRxCit8kWDZO-16">
          <mxGeometry x="0.0526" y="50" width="80" relative="1" as="geometry">
            <mxPoint x="1080" y="913.25" as="sourcePoint" />
            <mxPoint x="100" y="909.25" as="targetPoint" />
            <mxPoint as="offset" />
            <Array as="points">
              <mxPoint x="1090" y="602" />
              <mxPoint x="1090" y="560" />
              <mxPoint x="1340" y="560" />
              <mxPoint x="1340" y="440" />
            </Array>
          </mxGeometry>
        </mxCell>
        <mxCell id="GctXH5fVTygRouG8h9Ei-0" value="&amp;lt;&amp;lt;include&amp;gt;&amp;gt;" style="html=1;verticalAlign=bottom;labelBackgroundColor=none;endArrow=open;endFill=0;dashed=1;rounded=0;exitX=0;exitY=0.5;exitDx=0;exitDy=0;entryX=1;entryY=0;entryDx=0;entryDy=0;" edge="1" parent="OBgyyZMcBRxCit8kWDZO-1" source="OBgyyZMcBRxCit8kWDZO-29" target="OBgyyZMcBRxCit8kWDZO-26">
          <mxGeometry x="-0.1659" y="5" width="160" relative="1" as="geometry">
            <mxPoint x="710" y="550" as="sourcePoint" />
            <mxPoint x="870" y="550" as="targetPoint" />
            <mxPoint as="offset" />
          </mxGeometry>
        </mxCell>
        <mxCell id="GctXH5fVTygRouG8h9Ei-1" value="&amp;lt;&amp;lt;include&amp;gt;&amp;gt;" style="html=1;verticalAlign=bottom;labelBackgroundColor=none;endArrow=open;endFill=0;dashed=1;rounded=0;exitX=0;exitY=0.5;exitDx=0;exitDy=0;entryX=1;entryY=0.5;entryDx=0;entryDy=0;" edge="1" parent="OBgyyZMcBRxCit8kWDZO-1" source="OBgyyZMcBRxCit8kWDZO-27" target="OBgyyZMcBRxCit8kWDZO-21">
          <mxGeometry x="0.1748" y="-2" width="160" relative="1" as="geometry">
            <mxPoint x="1080" y="270" as="sourcePoint" />
            <mxPoint x="870" y="550" as="targetPoint" />
            <mxPoint as="offset" />
          </mxGeometry>
        </mxCell>
        <mxCell id="GctXH5fVTygRouG8h9Ei-2" value="&amp;lt;&amp;lt;include&amp;gt;&amp;gt;" style="html=1;verticalAlign=bottom;labelBackgroundColor=none;endArrow=open;endFill=0;dashed=1;rounded=0;exitX=0;exitY=0.5;exitDx=0;exitDy=0;entryX=1;entryY=0.5;entryDx=0;entryDy=0;" edge="1" parent="OBgyyZMcBRxCit8kWDZO-1" source="OBgyyZMcBRxCit8kWDZO-28" target="OBgyyZMcBRxCit8kWDZO-21">
          <mxGeometry x="-0.1513" y="18" width="160" relative="1" as="geometry">
            <mxPoint x="590" y="550" as="sourcePoint" />
            <mxPoint x="750" y="550" as="targetPoint" />
            <mxPoint as="offset" />
          </mxGeometry>
        </mxCell>
        <mxCell id="GctXH5fVTygRouG8h9Ei-3" value="&amp;lt;&amp;lt;include&amp;gt;&amp;gt;" style="html=1;verticalAlign=bottom;labelBackgroundColor=none;endArrow=open;endFill=0;dashed=1;rounded=0;exitX=0;exitY=0.5;exitDx=0;exitDy=0;entryX=0;entryY=1;entryDx=0;entryDy=0;" edge="1" parent="OBgyyZMcBRxCit8kWDZO-1" source="OBgyyZMcBRxCit8kWDZO-30" target="OBgyyZMcBRxCit8kWDZO-29">
          <mxGeometry x="0.642" y="-14" width="160" relative="1" as="geometry">
            <mxPoint x="590" y="550" as="sourcePoint" />
            <mxPoint x="750" y="550" as="targetPoint" />
            <mxPoint as="offset" />
          </mxGeometry>
        </mxCell>
        <mxCell id="GctXH5fVTygRouG8h9Ei-4" value="&amp;lt;&amp;lt;include&amp;gt;&amp;gt;" style="html=1;verticalAlign=bottom;labelBackgroundColor=none;endArrow=open;endFill=0;dashed=1;rounded=0;exitX=0;exitY=0.5;exitDx=0;exitDy=0;entryX=0;entryY=1;entryDx=0;entryDy=0;" edge="1" parent="OBgyyZMcBRxCit8kWDZO-1" source="OBgyyZMcBRxCit8kWDZO-31" target="OBgyyZMcBRxCit8kWDZO-29">
          <mxGeometry x="0.7261" y="12" width="160" relative="1" as="geometry">
            <mxPoint x="590" y="550" as="sourcePoint" />
            <mxPoint x="750" y="550" as="targetPoint" />
            <mxPoint as="offset" />
          </mxGeometry>
        </mxCell>
        <mxCell id="GctXH5fVTygRouG8h9Ei-5" value="&amp;lt;&amp;lt;include&amp;gt;&amp;gt;" style="html=1;verticalAlign=bottom;labelBackgroundColor=none;endArrow=open;endFill=0;dashed=1;rounded=0;exitX=0;exitY=0.5;exitDx=0;exitDy=0;entryX=1;entryY=0.5;entryDx=0;entryDy=0;" edge="1" parent="OBgyyZMcBRxCit8kWDZO-1" source="OBgyyZMcBRxCit8kWDZO-53" target="OBgyyZMcBRxCit8kWDZO-23">
          <mxGeometry x="-0.6556" y="5" width="160" relative="1" as="geometry">
            <mxPoint x="820" y="550" as="sourcePoint" />
            <mxPoint x="980" y="550" as="targetPoint" />
            <mxPoint as="offset" />
          </mxGeometry>
        </mxCell>
        <mxCell id="GctXH5fVTygRouG8h9Ei-8" value="&amp;lt;&amp;lt;include&amp;gt;&amp;gt;" style="html=1;verticalAlign=bottom;labelBackgroundColor=none;endArrow=open;endFill=0;dashed=1;rounded=0;exitX=0.5;exitY=1;exitDx=0;exitDy=0;entryX=0.5;entryY=0;entryDx=0;entryDy=0;" edge="1" parent="OBgyyZMcBRxCit8kWDZO-1" source="OBgyyZMcBRxCit8kWDZO-54" target="OBgyyZMcBRxCit8kWDZO-53">
          <mxGeometry width="160" relative="1" as="geometry">
            <mxPoint x="750" y="540" as="sourcePoint" />
            <mxPoint x="910" y="540" as="targetPoint" />
          </mxGeometry>
        </mxCell>
        <mxCell id="ECxtg6BPCeSUxxwgJpyn-0" value="&amp;lt;&amp;lt;include&amp;gt;&amp;gt;" style="html=1;verticalAlign=bottom;labelBackgroundColor=none;endArrow=open;endFill=0;dashed=1;rounded=0;exitX=0.5;exitY=0;exitDx=0;exitDy=0;entryX=0.5;entryY=1;entryDx=0;entryDy=0;" edge="1" parent="OBgyyZMcBRxCit8kWDZO-1" source="OBgyyZMcBRxCit8kWDZO-25" target="OBgyyZMcBRxCit8kWDZO-26">
          <mxGeometry x="-0.5" width="160" relative="1" as="geometry">
            <mxPoint x="670" y="629.13" as="sourcePoint" />
            <mxPoint x="830" y="629.13" as="targetPoint" />
            <mxPoint as="offset" />
          </mxGeometry>
        </mxCell>
      </root>
    </mxGraphModel>
  </diagram>
  <diagram id="49ow4Qxvur0uI4tk_Ne_" name="database model">
    <mxGraphModel dx="792" dy="1104" grid="1" gridSize="10" guides="1" tooltips="1" connect="1" arrows="1" fold="1" page="1" pageScale="1" pageWidth="1500" pageHeight="1100" math="0" shadow="0">
      <root>
        <mxCell id="0" />
        <mxCell id="1" parent="0" />
        <mxCell id="aZStTRDdMApWXwep83oh-16" value="User" style="shape=table;startSize=30;container=1;collapsible=1;childLayout=tableLayout;fixedRows=1;rowLines=0;fontStyle=1;align=center;resizeLast=1;html=1;" parent="1" vertex="1">
          <mxGeometry x="320" y="40" width="200" height="150" as="geometry" />
        </mxCell>
        <mxCell id="aZStTRDdMApWXwep83oh-17" value="" style="shape=tableRow;horizontal=0;startSize=0;swimlaneHead=0;swimlaneBody=0;fillColor=none;collapsible=0;dropTarget=0;points=[[0,0.5],[1,0.5]];portConstraint=eastwest;top=0;left=0;right=0;bottom=1;" parent="aZStTRDdMApWXwep83oh-16" vertex="1">
          <mxGeometry y="30" width="200" height="30" as="geometry" />
        </mxCell>
        <mxCell id="aZStTRDdMApWXwep83oh-18" value="PK" style="shape=partialRectangle;connectable=0;fillColor=none;top=0;left=0;bottom=0;right=0;fontStyle=1;overflow=hidden;whiteSpace=wrap;html=1;" parent="aZStTRDdMApWXwep83oh-17" vertex="1">
          <mxGeometry width="30" height="30" as="geometry">
            <mxRectangle width="30" height="30" as="alternateBounds" />
          </mxGeometry>
        </mxCell>
        <mxCell id="aZStTRDdMApWXwep83oh-19" value="id: int" style="shape=partialRectangle;connectable=0;fillColor=none;top=0;left=0;bottom=0;right=0;align=left;spacingLeft=6;fontStyle=5;overflow=hidden;whiteSpace=wrap;html=1;" parent="aZStTRDdMApWXwep83oh-17" vertex="1">
          <mxGeometry x="30" width="170" height="30" as="geometry">
            <mxRectangle width="170" height="30" as="alternateBounds" />
          </mxGeometry>
        </mxCell>
        <mxCell id="aZStTRDdMApWXwep83oh-20" value="" style="shape=tableRow;horizontal=0;startSize=0;swimlaneHead=0;swimlaneBody=0;fillColor=none;collapsible=0;dropTarget=0;points=[[0,0.5],[1,0.5]];portConstraint=eastwest;top=0;left=0;right=0;bottom=0;" parent="aZStTRDdMApWXwep83oh-16" vertex="1">
          <mxGeometry y="60" width="200" height="30" as="geometry" />
        </mxCell>
        <mxCell id="aZStTRDdMApWXwep83oh-21" value="" style="shape=partialRectangle;connectable=0;fillColor=none;top=0;left=0;bottom=0;right=0;editable=1;overflow=hidden;whiteSpace=wrap;html=1;" parent="aZStTRDdMApWXwep83oh-20" vertex="1">
          <mxGeometry width="30" height="30" as="geometry">
            <mxRectangle width="30" height="30" as="alternateBounds" />
          </mxGeometry>
        </mxCell>
        <mxCell id="aZStTRDdMApWXwep83oh-22" value="username: string" style="shape=partialRectangle;connectable=0;fillColor=none;top=0;left=0;bottom=0;right=0;align=left;spacingLeft=6;overflow=hidden;whiteSpace=wrap;html=1;" parent="aZStTRDdMApWXwep83oh-20" vertex="1">
          <mxGeometry x="30" width="170" height="30" as="geometry">
            <mxRectangle width="170" height="30" as="alternateBounds" />
          </mxGeometry>
        </mxCell>
        <mxCell id="aZStTRDdMApWXwep83oh-23" value="" style="shape=tableRow;horizontal=0;startSize=0;swimlaneHead=0;swimlaneBody=0;fillColor=none;collapsible=0;dropTarget=0;points=[[0,0.5],[1,0.5]];portConstraint=eastwest;top=0;left=0;right=0;bottom=0;" parent="aZStTRDdMApWXwep83oh-16" vertex="1">
          <mxGeometry y="90" width="200" height="30" as="geometry" />
        </mxCell>
        <mxCell id="aZStTRDdMApWXwep83oh-24" value="" style="shape=partialRectangle;connectable=0;fillColor=none;top=0;left=0;bottom=0;right=0;editable=1;overflow=hidden;whiteSpace=wrap;html=1;" parent="aZStTRDdMApWXwep83oh-23" vertex="1">
          <mxGeometry width="30" height="30" as="geometry">
            <mxRectangle width="30" height="30" as="alternateBounds" />
          </mxGeometry>
        </mxCell>
        <mxCell id="aZStTRDdMApWXwep83oh-25" value="password: hashed string" style="shape=partialRectangle;connectable=0;fillColor=none;top=0;left=0;bottom=0;right=0;align=left;spacingLeft=6;overflow=hidden;whiteSpace=wrap;html=1;" parent="aZStTRDdMApWXwep83oh-23" vertex="1">
          <mxGeometry x="30" width="170" height="30" as="geometry">
            <mxRectangle width="170" height="30" as="alternateBounds" />
          </mxGeometry>
        </mxCell>
        <mxCell id="aZStTRDdMApWXwep83oh-122" value="" style="shape=tableRow;horizontal=0;startSize=0;swimlaneHead=0;swimlaneBody=0;fillColor=none;collapsible=0;dropTarget=0;points=[[0,0.5],[1,0.5]];portConstraint=eastwest;top=0;left=0;right=0;bottom=0;" parent="aZStTRDdMApWXwep83oh-16" vertex="1">
          <mxGeometry y="120" width="200" height="30" as="geometry" />
        </mxCell>
        <mxCell id="aZStTRDdMApWXwep83oh-123" value="" style="shape=partialRectangle;connectable=0;fillColor=none;top=0;left=0;bottom=0;right=0;editable=1;overflow=hidden;whiteSpace=wrap;html=1;" parent="aZStTRDdMApWXwep83oh-122" vertex="1">
          <mxGeometry width="30" height="30" as="geometry">
            <mxRectangle width="30" height="30" as="alternateBounds" />
          </mxGeometry>
        </mxCell>
        <mxCell id="aZStTRDdMApWXwep83oh-124" value="groups: List[Groups]" style="shape=partialRectangle;connectable=0;fillColor=none;top=0;left=0;bottom=0;right=0;align=left;spacingLeft=6;overflow=hidden;whiteSpace=wrap;html=1;" parent="aZStTRDdMApWXwep83oh-122" vertex="1">
          <mxGeometry x="30" width="170" height="30" as="geometry">
            <mxRectangle width="170" height="30" as="alternateBounds" />
          </mxGeometry>
        </mxCell>
        <mxCell id="aZStTRDdMApWXwep83oh-29" value="Report" style="shape=table;startSize=30;container=1;collapsible=1;childLayout=tableLayout;fixedRows=1;rowLines=0;fontStyle=1;align=center;resizeLast=1;html=1;" parent="1" vertex="1">
          <mxGeometry x="40" y="120" width="200" height="270" as="geometry" />
        </mxCell>
        <mxCell id="aZStTRDdMApWXwep83oh-30" value="" style="shape=tableRow;horizontal=0;startSize=0;swimlaneHead=0;swimlaneBody=0;fillColor=none;collapsible=0;dropTarget=0;points=[[0,0.5],[1,0.5]];portConstraint=eastwest;top=0;left=0;right=0;bottom=1;" parent="aZStTRDdMApWXwep83oh-29" vertex="1">
          <mxGeometry y="30" width="200" height="30" as="geometry" />
        </mxCell>
        <mxCell id="aZStTRDdMApWXwep83oh-31" value="PK" style="shape=partialRectangle;connectable=0;fillColor=none;top=0;left=0;bottom=0;right=0;fontStyle=1;overflow=hidden;whiteSpace=wrap;html=1;" parent="aZStTRDdMApWXwep83oh-30" vertex="1">
          <mxGeometry width="30" height="30" as="geometry">
            <mxRectangle width="30" height="30" as="alternateBounds" />
          </mxGeometry>
        </mxCell>
        <mxCell id="aZStTRDdMApWXwep83oh-32" value="id: int" style="shape=partialRectangle;connectable=0;fillColor=none;top=0;left=0;bottom=0;right=0;align=left;spacingLeft=6;fontStyle=5;overflow=hidden;whiteSpace=wrap;html=1;" parent="aZStTRDdMApWXwep83oh-30" vertex="1">
          <mxGeometry x="30" width="170" height="30" as="geometry">
            <mxRectangle width="170" height="30" as="alternateBounds" />
          </mxGeometry>
        </mxCell>
        <mxCell id="aZStTRDdMApWXwep83oh-36" value="" style="shape=tableRow;horizontal=0;startSize=0;swimlaneHead=0;swimlaneBody=0;fillColor=none;collapsible=0;dropTarget=0;points=[[0,0.5],[1,0.5]];portConstraint=eastwest;top=0;left=0;right=0;bottom=0;" parent="aZStTRDdMApWXwep83oh-29" vertex="1">
          <mxGeometry y="60" width="200" height="30" as="geometry" />
        </mxCell>
        <mxCell id="aZStTRDdMApWXwep83oh-37" value="" style="shape=partialRectangle;connectable=0;fillColor=none;top=0;left=0;bottom=0;right=0;editable=1;overflow=hidden;whiteSpace=wrap;html=1;" parent="aZStTRDdMApWXwep83oh-36" vertex="1">
          <mxGeometry width="30" height="30" as="geometry">
            <mxRectangle width="30" height="30" as="alternateBounds" />
          </mxGeometry>
        </mxCell>
        <mxCell id="aZStTRDdMApWXwep83oh-38" value="description: string" style="shape=partialRectangle;connectable=0;fillColor=none;top=0;left=0;bottom=0;right=0;align=left;spacingLeft=6;overflow=hidden;whiteSpace=wrap;html=1;" parent="aZStTRDdMApWXwep83oh-36" vertex="1">
          <mxGeometry x="30" width="170" height="30" as="geometry">
            <mxRectangle width="170" height="30" as="alternateBounds" />
          </mxGeometry>
        </mxCell>
        <mxCell id="aZStTRDdMApWXwep83oh-39" value="" style="shape=tableRow;horizontal=0;startSize=0;swimlaneHead=0;swimlaneBody=0;fillColor=none;collapsible=0;dropTarget=0;points=[[0,0.5],[1,0.5]];portConstraint=eastwest;top=0;left=0;right=0;bottom=0;" parent="aZStTRDdMApWXwep83oh-29" vertex="1">
          <mxGeometry y="90" width="200" height="30" as="geometry" />
        </mxCell>
        <mxCell id="aZStTRDdMApWXwep83oh-40" value="FK" style="shape=partialRectangle;connectable=0;fillColor=none;top=0;left=0;bottom=0;right=0;editable=1;overflow=hidden;whiteSpace=wrap;html=1;" parent="aZStTRDdMApWXwep83oh-39" vertex="1">
          <mxGeometry width="30" height="30" as="geometry">
            <mxRectangle width="30" height="30" as="alternateBounds" />
          </mxGeometry>
        </mxCell>
        <mxCell id="aZStTRDdMApWXwep83oh-41" value="author_id: int" style="shape=partialRectangle;connectable=0;fillColor=none;top=0;left=0;bottom=0;right=0;align=left;spacingLeft=6;overflow=hidden;whiteSpace=wrap;html=1;" parent="aZStTRDdMApWXwep83oh-39" vertex="1">
          <mxGeometry x="30" width="170" height="30" as="geometry">
            <mxRectangle width="170" height="30" as="alternateBounds" />
          </mxGeometry>
        </mxCell>
        <mxCell id="aZStTRDdMApWXwep83oh-42" value="" style="shape=tableRow;horizontal=0;startSize=0;swimlaneHead=0;swimlaneBody=0;fillColor=none;collapsible=0;dropTarget=0;points=[[0,0.5],[1,0.5]];portConstraint=eastwest;top=0;left=0;right=0;bottom=0;" parent="aZStTRDdMApWXwep83oh-29" vertex="1">
          <mxGeometry y="120" width="200" height="30" as="geometry" />
        </mxCell>
        <mxCell id="aZStTRDdMApWXwep83oh-43" value="" style="shape=partialRectangle;connectable=0;fillColor=none;top=0;left=0;bottom=0;right=0;editable=1;overflow=hidden;whiteSpace=wrap;html=1;" parent="aZStTRDdMApWXwep83oh-42" vertex="1">
          <mxGeometry width="30" height="30" as="geometry">
            <mxRectangle width="30" height="30" as="alternateBounds" />
          </mxGeometry>
        </mxCell>
        <mxCell id="aZStTRDdMApWXwep83oh-44" value="created_at: date" style="shape=partialRectangle;connectable=0;fillColor=none;top=0;left=0;bottom=0;right=0;align=left;spacingLeft=6;overflow=hidden;whiteSpace=wrap;html=1;" parent="aZStTRDdMApWXwep83oh-42" vertex="1">
          <mxGeometry x="30" width="170" height="30" as="geometry">
            <mxRectangle width="170" height="30" as="alternateBounds" />
          </mxGeometry>
        </mxCell>
        <mxCell id="aZStTRDdMApWXwep83oh-45" value="" style="shape=tableRow;horizontal=0;startSize=0;swimlaneHead=0;swimlaneBody=0;fillColor=none;collapsible=0;dropTarget=0;points=[[0,0.5],[1,0.5]];portConstraint=eastwest;top=0;left=0;right=0;bottom=0;" parent="aZStTRDdMApWXwep83oh-29" vertex="1">
          <mxGeometry y="150" width="200" height="30" as="geometry" />
        </mxCell>
        <mxCell id="aZStTRDdMApWXwep83oh-46" value="FK" style="shape=partialRectangle;connectable=0;fillColor=none;top=0;left=0;bottom=0;right=0;editable=1;overflow=hidden;whiteSpace=wrap;html=1;" parent="aZStTRDdMApWXwep83oh-45" vertex="1">
          <mxGeometry width="30" height="30" as="geometry">
            <mxRectangle width="30" height="30" as="alternateBounds" />
          </mxGeometry>
        </mxCell>
        <mxCell id="aZStTRDdMApWXwep83oh-47" value="article_id: int" style="shape=partialRectangle;connectable=0;fillColor=none;top=0;left=0;bottom=0;right=0;align=left;spacingLeft=6;overflow=hidden;whiteSpace=wrap;html=1;" parent="aZStTRDdMApWXwep83oh-45" vertex="1">
          <mxGeometry x="30" width="170" height="30" as="geometry">
            <mxRectangle width="170" height="30" as="alternateBounds" />
          </mxGeometry>
        </mxCell>
        <mxCell id="aZStTRDdMApWXwep83oh-48" value="" style="shape=tableRow;horizontal=0;startSize=0;swimlaneHead=0;swimlaneBody=0;fillColor=none;collapsible=0;dropTarget=0;points=[[0,0.5],[1,0.5]];portConstraint=eastwest;top=0;left=0;right=0;bottom=0;" parent="aZStTRDdMApWXwep83oh-29" vertex="1">
          <mxGeometry y="180" width="200" height="30" as="geometry" />
        </mxCell>
        <mxCell id="aZStTRDdMApWXwep83oh-49" value="FK" style="shape=partialRectangle;connectable=0;fillColor=none;top=0;left=0;bottom=0;right=0;editable=1;overflow=hidden;whiteSpace=wrap;html=1;" parent="aZStTRDdMApWXwep83oh-48" vertex="1">
          <mxGeometry width="30" height="30" as="geometry">
            <mxRectangle width="30" height="30" as="alternateBounds" />
          </mxGeometry>
        </mxCell>
        <mxCell id="aZStTRDdMApWXwep83oh-50" value="editor: Optional[User]" style="shape=partialRectangle;connectable=0;fillColor=none;top=0;left=0;bottom=0;right=0;align=left;spacingLeft=6;overflow=hidden;whiteSpace=wrap;html=1;" parent="aZStTRDdMApWXwep83oh-48" vertex="1">
          <mxGeometry x="30" width="170" height="30" as="geometry">
            <mxRectangle width="170" height="30" as="alternateBounds" />
          </mxGeometry>
        </mxCell>
        <mxCell id="aZStTRDdMApWXwep83oh-51" value="" style="shape=tableRow;horizontal=0;startSize=0;swimlaneHead=0;swimlaneBody=0;fillColor=none;collapsible=0;dropTarget=0;points=[[0,0.5],[1,0.5]];portConstraint=eastwest;top=0;left=0;right=0;bottom=0;" parent="aZStTRDdMApWXwep83oh-29" vertex="1">
          <mxGeometry y="210" width="200" height="30" as="geometry" />
        </mxCell>
        <mxCell id="aZStTRDdMApWXwep83oh-52" value="" style="shape=partialRectangle;connectable=0;fillColor=none;top=0;left=0;bottom=0;right=0;editable=1;overflow=hidden;whiteSpace=wrap;html=1;" parent="aZStTRDdMApWXwep83oh-51" vertex="1">
          <mxGeometry width="30" height="30" as="geometry">
            <mxRectangle width="30" height="30" as="alternateBounds" />
          </mxGeometry>
        </mxCell>
        <mxCell id="aZStTRDdMApWXwep83oh-53" value="additional_file: Optional[file]" style="shape=partialRectangle;connectable=0;fillColor=none;top=0;left=0;bottom=0;right=0;align=left;spacingLeft=6;overflow=hidden;whiteSpace=wrap;html=1;" parent="aZStTRDdMApWXwep83oh-51" vertex="1">
          <mxGeometry x="30" width="170" height="30" as="geometry">
            <mxRectangle width="170" height="30" as="alternateBounds" />
          </mxGeometry>
        </mxCell>
        <mxCell id="aZStTRDdMApWXwep83oh-54" value="" style="shape=tableRow;horizontal=0;startSize=0;swimlaneHead=0;swimlaneBody=0;fillColor=none;collapsible=0;dropTarget=0;points=[[0,0.5],[1,0.5]];portConstraint=eastwest;top=0;left=0;right=0;bottom=0;" parent="aZStTRDdMApWXwep83oh-29" vertex="1">
          <mxGeometry y="240" width="200" height="30" as="geometry" />
        </mxCell>
        <mxCell id="aZStTRDdMApWXwep83oh-55" value="" style="shape=partialRectangle;connectable=0;fillColor=none;top=0;left=0;bottom=0;right=0;editable=1;overflow=hidden;whiteSpace=wrap;html=1;" parent="aZStTRDdMApWXwep83oh-54" vertex="1">
          <mxGeometry width="30" height="30" as="geometry">
            <mxRectangle width="30" height="30" as="alternateBounds" />
          </mxGeometry>
        </mxCell>
        <mxCell id="aZStTRDdMApWXwep83oh-56" value="status: string" style="shape=partialRectangle;connectable=0;fillColor=none;top=0;left=0;bottom=0;right=0;align=left;spacingLeft=6;overflow=hidden;whiteSpace=wrap;html=1;" parent="aZStTRDdMApWXwep83oh-54" vertex="1">
          <mxGeometry x="30" width="170" height="30" as="geometry">
            <mxRectangle width="170" height="30" as="alternateBounds" />
          </mxGeometry>
        </mxCell>
        <mxCell id="aZStTRDdMApWXwep83oh-57" value="Article" style="shape=table;startSize=30;container=1;collapsible=1;childLayout=tableLayout;fixedRows=1;rowLines=0;fontStyle=1;align=center;resizeLast=1;html=1;" parent="1" vertex="1">
          <mxGeometry x="600" y="160" width="200" height="210" as="geometry" />
        </mxCell>
        <mxCell id="aZStTRDdMApWXwep83oh-58" value="" style="shape=tableRow;horizontal=0;startSize=0;swimlaneHead=0;swimlaneBody=0;fillColor=none;collapsible=0;dropTarget=0;points=[[0,0.5],[1,0.5]];portConstraint=eastwest;top=0;left=0;right=0;bottom=1;" parent="aZStTRDdMApWXwep83oh-57" vertex="1">
          <mxGeometry y="30" width="200" height="30" as="geometry" />
        </mxCell>
        <mxCell id="aZStTRDdMApWXwep83oh-59" value="PK" style="shape=partialRectangle;connectable=0;fillColor=none;top=0;left=0;bottom=0;right=0;fontStyle=1;overflow=hidden;whiteSpace=wrap;html=1;" parent="aZStTRDdMApWXwep83oh-58" vertex="1">
          <mxGeometry width="30" height="30" as="geometry">
            <mxRectangle width="30" height="30" as="alternateBounds" />
          </mxGeometry>
        </mxCell>
        <mxCell id="aZStTRDdMApWXwep83oh-60" value="id: int" style="shape=partialRectangle;connectable=0;fillColor=none;top=0;left=0;bottom=0;right=0;align=left;spacingLeft=6;fontStyle=5;overflow=hidden;whiteSpace=wrap;html=1;" parent="aZStTRDdMApWXwep83oh-58" vertex="1">
          <mxGeometry x="30" width="170" height="30" as="geometry">
            <mxRectangle width="170" height="30" as="alternateBounds" />
          </mxGeometry>
        </mxCell>
        <mxCell id="aZStTRDdMApWXwep83oh-61" value="" style="shape=tableRow;horizontal=0;startSize=0;swimlaneHead=0;swimlaneBody=0;fillColor=none;collapsible=0;dropTarget=0;points=[[0,0.5],[1,0.5]];portConstraint=eastwest;top=0;left=0;right=0;bottom=0;" parent="aZStTRDdMApWXwep83oh-57" vertex="1">
          <mxGeometry y="60" width="200" height="30" as="geometry" />
        </mxCell>
        <mxCell id="aZStTRDdMApWXwep83oh-62" value="" style="shape=partialRectangle;connectable=0;fillColor=none;top=0;left=0;bottom=0;right=0;editable=1;overflow=hidden;whiteSpace=wrap;html=1;" parent="aZStTRDdMApWXwep83oh-61" vertex="1">
          <mxGeometry width="30" height="30" as="geometry">
            <mxRectangle width="30" height="30" as="alternateBounds" />
          </mxGeometry>
        </mxCell>
        <mxCell id="aZStTRDdMApWXwep83oh-63" value="title: string" style="shape=partialRectangle;connectable=0;fillColor=none;top=0;left=0;bottom=0;right=0;align=left;spacingLeft=6;overflow=hidden;whiteSpace=wrap;html=1;" parent="aZStTRDdMApWXwep83oh-61" vertex="1">
          <mxGeometry x="30" width="170" height="30" as="geometry">
            <mxRectangle width="170" height="30" as="alternateBounds" />
          </mxGeometry>
        </mxCell>
        <mxCell id="aZStTRDdMApWXwep83oh-64" value="" style="shape=tableRow;horizontal=0;startSize=0;swimlaneHead=0;swimlaneBody=0;fillColor=none;collapsible=0;dropTarget=0;points=[[0,0.5],[1,0.5]];portConstraint=eastwest;top=0;left=0;right=0;bottom=0;" parent="aZStTRDdMApWXwep83oh-57" vertex="1">
          <mxGeometry y="90" width="200" height="30" as="geometry" />
        </mxCell>
        <mxCell id="aZStTRDdMApWXwep83oh-65" value="FK" style="shape=partialRectangle;connectable=0;fillColor=none;top=0;left=0;bottom=0;right=0;editable=1;overflow=hidden;whiteSpace=wrap;html=1;" parent="aZStTRDdMApWXwep83oh-64" vertex="1">
          <mxGeometry width="30" height="30" as="geometry">
            <mxRectangle width="30" height="30" as="alternateBounds" />
          </mxGeometry>
        </mxCell>
        <mxCell id="aZStTRDdMApWXwep83oh-66" value="author_id: int" style="shape=partialRectangle;connectable=0;fillColor=none;top=0;left=0;bottom=0;right=0;align=left;spacingLeft=6;overflow=hidden;whiteSpace=wrap;html=1;" parent="aZStTRDdMApWXwep83oh-64" vertex="1">
          <mxGeometry x="30" width="170" height="30" as="geometry">
            <mxRectangle width="170" height="30" as="alternateBounds" />
          </mxGeometry>
        </mxCell>
        <mxCell id="aZStTRDdMApWXwep83oh-67" value="" style="shape=tableRow;horizontal=0;startSize=0;swimlaneHead=0;swimlaneBody=0;fillColor=none;collapsible=0;dropTarget=0;points=[[0,0.5],[1,0.5]];portConstraint=eastwest;top=0;left=0;right=0;bottom=0;" parent="aZStTRDdMApWXwep83oh-57" vertex="1">
          <mxGeometry y="120" width="200" height="30" as="geometry" />
        </mxCell>
        <mxCell id="aZStTRDdMApWXwep83oh-68" value="" style="shape=partialRectangle;connectable=0;fillColor=none;top=0;left=0;bottom=0;right=0;editable=1;overflow=hidden;whiteSpace=wrap;html=1;" parent="aZStTRDdMApWXwep83oh-67" vertex="1">
          <mxGeometry width="30" height="30" as="geometry">
            <mxRectangle width="30" height="30" as="alternateBounds" />
          </mxGeometry>
        </mxCell>
        <mxCell id="aZStTRDdMApWXwep83oh-69" value="created_at: date" style="shape=partialRectangle;connectable=0;fillColor=none;top=0;left=0;bottom=0;right=0;align=left;spacingLeft=6;overflow=hidden;whiteSpace=wrap;html=1;" parent="aZStTRDdMApWXwep83oh-67" vertex="1">
          <mxGeometry x="30" width="170" height="30" as="geometry">
            <mxRectangle width="170" height="30" as="alternateBounds" />
          </mxGeometry>
        </mxCell>
        <mxCell id="aZStTRDdMApWXwep83oh-70" value="" style="shape=tableRow;horizontal=0;startSize=0;swimlaneHead=0;swimlaneBody=0;fillColor=none;collapsible=0;dropTarget=0;points=[[0,0.5],[1,0.5]];portConstraint=eastwest;top=0;left=0;right=0;bottom=0;" parent="aZStTRDdMApWXwep83oh-57" vertex="1">
          <mxGeometry y="150" width="200" height="30" as="geometry" />
        </mxCell>
        <mxCell id="aZStTRDdMApWXwep83oh-71" value="" style="shape=partialRectangle;connectable=0;fillColor=none;top=0;left=0;bottom=0;right=0;editable=1;overflow=hidden;whiteSpace=wrap;html=1;" parent="aZStTRDdMApWXwep83oh-70" vertex="1">
          <mxGeometry width="30" height="30" as="geometry">
            <mxRectangle width="30" height="30" as="alternateBounds" />
          </mxGeometry>
        </mxCell>
        <mxCell id="aZStTRDdMApWXwep83oh-72" value="tags:&amp;nbsp;TaggableManager" style="shape=partialRectangle;connectable=0;fillColor=none;top=0;left=0;bottom=0;right=0;align=left;spacingLeft=6;overflow=hidden;whiteSpace=wrap;html=1;" parent="aZStTRDdMApWXwep83oh-70" vertex="1">
          <mxGeometry x="30" width="170" height="30" as="geometry">
            <mxRectangle width="170" height="30" as="alternateBounds" />
          </mxGeometry>
        </mxCell>
        <mxCell id="aZStTRDdMApWXwep83oh-73" value="" style="shape=tableRow;horizontal=0;startSize=0;swimlaneHead=0;swimlaneBody=0;fillColor=none;collapsible=0;dropTarget=0;points=[[0,0.5],[1,0.5]];portConstraint=eastwest;top=0;left=0;right=0;bottom=0;" parent="aZStTRDdMApWXwep83oh-57" vertex="1">
          <mxGeometry y="180" width="200" height="30" as="geometry" />
        </mxCell>
        <mxCell id="aZStTRDdMApWXwep83oh-74" value="" style="shape=partialRectangle;connectable=0;fillColor=none;top=0;left=0;bottom=0;right=0;editable=1;overflow=hidden;whiteSpace=wrap;html=1;" parent="aZStTRDdMApWXwep83oh-73" vertex="1">
          <mxGeometry width="30" height="30" as="geometry">
            <mxRectangle width="30" height="30" as="alternateBounds" />
          </mxGeometry>
        </mxCell>
        <mxCell id="aZStTRDdMApWXwep83oh-75" value="status: string" style="shape=partialRectangle;connectable=0;fillColor=none;top=0;left=0;bottom=0;right=0;align=left;spacingLeft=6;overflow=hidden;whiteSpace=wrap;html=1;" parent="aZStTRDdMApWXwep83oh-73" vertex="1">
          <mxGeometry x="30" width="170" height="30" as="geometry">
            <mxRectangle width="170" height="30" as="alternateBounds" />
          </mxGeometry>
        </mxCell>
        <mxCell id="aZStTRDdMApWXwep83oh-79" value="Step" style="shape=table;startSize=30;container=1;collapsible=1;childLayout=tableLayout;fixedRows=1;rowLines=0;fontStyle=1;align=center;resizeLast=1;html=1;" parent="1" vertex="1">
          <mxGeometry x="880" y="160" width="200" height="270" as="geometry" />
        </mxCell>
        <mxCell id="aZStTRDdMApWXwep83oh-80" value="" style="shape=tableRow;horizontal=0;startSize=0;swimlaneHead=0;swimlaneBody=0;fillColor=none;collapsible=0;dropTarget=0;points=[[0,0.5],[1,0.5]];portConstraint=eastwest;top=0;left=0;right=0;bottom=1;" parent="aZStTRDdMApWXwep83oh-79" vertex="1">
          <mxGeometry y="30" width="200" height="30" as="geometry" />
        </mxCell>
        <mxCell id="aZStTRDdMApWXwep83oh-81" value="PK" style="shape=partialRectangle;connectable=0;fillColor=none;top=0;left=0;bottom=0;right=0;fontStyle=1;overflow=hidden;whiteSpace=wrap;html=1;" parent="aZStTRDdMApWXwep83oh-80" vertex="1">
          <mxGeometry width="30" height="30" as="geometry">
            <mxRectangle width="30" height="30" as="alternateBounds" />
          </mxGeometry>
        </mxCell>
        <mxCell id="aZStTRDdMApWXwep83oh-82" value="id: int" style="shape=partialRectangle;connectable=0;fillColor=none;top=0;left=0;bottom=0;right=0;align=left;spacingLeft=6;fontStyle=5;overflow=hidden;whiteSpace=wrap;html=1;" parent="aZStTRDdMApWXwep83oh-80" vertex="1">
          <mxGeometry x="30" width="170" height="30" as="geometry">
            <mxRectangle width="170" height="30" as="alternateBounds" />
          </mxGeometry>
        </mxCell>
        <mxCell id="aZStTRDdMApWXwep83oh-83" value="" style="shape=tableRow;horizontal=0;startSize=0;swimlaneHead=0;swimlaneBody=0;fillColor=none;collapsible=0;dropTarget=0;points=[[0,0.5],[1,0.5]];portConstraint=eastwest;top=0;left=0;right=0;bottom=0;" parent="aZStTRDdMApWXwep83oh-79" vertex="1">
          <mxGeometry y="60" width="200" height="30" as="geometry" />
        </mxCell>
        <mxCell id="aZStTRDdMApWXwep83oh-84" value="FK" style="shape=partialRectangle;connectable=0;fillColor=none;top=0;left=0;bottom=0;right=0;editable=1;overflow=hidden;whiteSpace=wrap;html=1;" parent="aZStTRDdMApWXwep83oh-83" vertex="1">
          <mxGeometry width="30" height="30" as="geometry">
            <mxRectangle width="30" height="30" as="alternateBounds" />
          </mxGeometry>
        </mxCell>
        <mxCell id="aZStTRDdMApWXwep83oh-85" value="article_id: int" style="shape=partialRectangle;connectable=0;fillColor=none;top=0;left=0;bottom=0;right=0;align=left;spacingLeft=6;overflow=hidden;whiteSpace=wrap;html=1;" parent="aZStTRDdMApWXwep83oh-83" vertex="1">
          <mxGeometry x="30" width="170" height="30" as="geometry">
            <mxRectangle width="170" height="30" as="alternateBounds" />
          </mxGeometry>
        </mxCell>
        <mxCell id="aZStTRDdMApWXwep83oh-86" value="" style="shape=tableRow;horizontal=0;startSize=0;swimlaneHead=0;swimlaneBody=0;fillColor=none;collapsible=0;dropTarget=0;points=[[0,0.5],[1,0.5]];portConstraint=eastwest;top=0;left=0;right=0;bottom=0;" parent="aZStTRDdMApWXwep83oh-79" vertex="1">
          <mxGeometry y="90" width="200" height="30" as="geometry" />
        </mxCell>
        <mxCell id="aZStTRDdMApWXwep83oh-87" value="" style="shape=partialRectangle;connectable=0;fillColor=none;top=0;left=0;bottom=0;right=0;editable=1;overflow=hidden;whiteSpace=wrap;html=1;" parent="aZStTRDdMApWXwep83oh-86" vertex="1">
          <mxGeometry width="30" height="30" as="geometry">
            <mxRectangle width="30" height="30" as="alternateBounds" />
          </mxGeometry>
        </mxCell>
        <mxCell id="aZStTRDdMApWXwep83oh-88" value="step_number: int" style="shape=partialRectangle;connectable=0;fillColor=none;top=0;left=0;bottom=0;right=0;align=left;spacingLeft=6;overflow=hidden;whiteSpace=wrap;html=1;" parent="aZStTRDdMApWXwep83oh-86" vertex="1">
          <mxGeometry x="30" width="170" height="30" as="geometry">
            <mxRectangle width="170" height="30" as="alternateBounds" />
          </mxGeometry>
        </mxCell>
        <mxCell id="aZStTRDdMApWXwep83oh-89" value="" style="shape=tableRow;horizontal=0;startSize=0;swimlaneHead=0;swimlaneBody=0;fillColor=none;collapsible=0;dropTarget=0;points=[[0,0.5],[1,0.5]];portConstraint=eastwest;top=0;left=0;right=0;bottom=0;" parent="aZStTRDdMApWXwep83oh-79" vertex="1">
          <mxGeometry y="120" width="200" height="30" as="geometry" />
        </mxCell>
        <mxCell id="aZStTRDdMApWXwep83oh-90" value="" style="shape=partialRectangle;connectable=0;fillColor=none;top=0;left=0;bottom=0;right=0;editable=1;overflow=hidden;whiteSpace=wrap;html=1;" parent="aZStTRDdMApWXwep83oh-89" vertex="1">
          <mxGeometry width="30" height="30" as="geometry">
            <mxRectangle width="30" height="30" as="alternateBounds" />
          </mxGeometry>
        </mxCell>
        <mxCell id="aZStTRDdMApWXwep83oh-91" value="title: string" style="shape=partialRectangle;connectable=0;fillColor=none;top=0;left=0;bottom=0;right=0;align=left;spacingLeft=6;overflow=hidden;whiteSpace=wrap;html=1;" parent="aZStTRDdMApWXwep83oh-89" vertex="1">
          <mxGeometry x="30" width="170" height="30" as="geometry">
            <mxRectangle width="170" height="30" as="alternateBounds" />
          </mxGeometry>
        </mxCell>
        <mxCell id="aZStTRDdMApWXwep83oh-92" value="" style="shape=tableRow;horizontal=0;startSize=0;swimlaneHead=0;swimlaneBody=0;fillColor=none;collapsible=0;dropTarget=0;points=[[0,0.5],[1,0.5]];portConstraint=eastwest;top=0;left=0;right=0;bottom=0;" parent="aZStTRDdMApWXwep83oh-79" vertex="1">
          <mxGeometry y="150" width="200" height="30" as="geometry" />
        </mxCell>
        <mxCell id="aZStTRDdMApWXwep83oh-93" value="" style="shape=partialRectangle;connectable=0;fillColor=none;top=0;left=0;bottom=0;right=0;editable=1;overflow=hidden;whiteSpace=wrap;html=1;" parent="aZStTRDdMApWXwep83oh-92" vertex="1">
          <mxGeometry width="30" height="30" as="geometry">
            <mxRectangle width="30" height="30" as="alternateBounds" />
          </mxGeometry>
        </mxCell>
        <mxCell id="aZStTRDdMApWXwep83oh-94" value="description1: Optional[string]" style="shape=partialRectangle;connectable=0;fillColor=none;top=0;left=0;bottom=0;right=0;align=left;spacingLeft=6;overflow=hidden;whiteSpace=wrap;html=1;" parent="aZStTRDdMApWXwep83oh-92" vertex="1">
          <mxGeometry x="30" width="170" height="30" as="geometry">
            <mxRectangle width="170" height="30" as="alternateBounds" />
          </mxGeometry>
        </mxCell>
        <mxCell id="aZStTRDdMApWXwep83oh-95" value="" style="shape=tableRow;horizontal=0;startSize=0;swimlaneHead=0;swimlaneBody=0;fillColor=none;collapsible=0;dropTarget=0;points=[[0,0.5],[1,0.5]];portConstraint=eastwest;top=0;left=0;right=0;bottom=0;" parent="aZStTRDdMApWXwep83oh-79" vertex="1">
          <mxGeometry y="180" width="200" height="30" as="geometry" />
        </mxCell>
        <mxCell id="aZStTRDdMApWXwep83oh-96" value="" style="shape=partialRectangle;connectable=0;fillColor=none;top=0;left=0;bottom=0;right=0;editable=1;overflow=hidden;whiteSpace=wrap;html=1;" parent="aZStTRDdMApWXwep83oh-95" vertex="1">
          <mxGeometry width="30" height="30" as="geometry">
            <mxRectangle width="30" height="30" as="alternateBounds" />
          </mxGeometry>
        </mxCell>
        <mxCell id="aZStTRDdMApWXwep83oh-97" value="file1: Optional[file]" style="shape=partialRectangle;connectable=0;fillColor=none;top=0;left=0;bottom=0;right=0;align=left;spacingLeft=6;overflow=hidden;whiteSpace=wrap;html=1;" parent="aZStTRDdMApWXwep83oh-95" vertex="1">
          <mxGeometry x="30" width="170" height="30" as="geometry">
            <mxRectangle width="170" height="30" as="alternateBounds" />
          </mxGeometry>
        </mxCell>
        <mxCell id="aZStTRDdMApWXwep83oh-99" value="" style="shape=tableRow;horizontal=0;startSize=0;swimlaneHead=0;swimlaneBody=0;fillColor=none;collapsible=0;dropTarget=0;points=[[0,0.5],[1,0.5]];portConstraint=eastwest;top=0;left=0;right=0;bottom=0;" parent="aZStTRDdMApWXwep83oh-79" vertex="1">
          <mxGeometry y="210" width="200" height="30" as="geometry" />
        </mxCell>
        <mxCell id="aZStTRDdMApWXwep83oh-100" value="" style="shape=partialRectangle;connectable=0;fillColor=none;top=0;left=0;bottom=0;right=0;editable=1;overflow=hidden;whiteSpace=wrap;html=1;" parent="aZStTRDdMApWXwep83oh-99" vertex="1">
          <mxGeometry width="30" height="30" as="geometry">
            <mxRectangle width="30" height="30" as="alternateBounds" />
          </mxGeometry>
        </mxCell>
        <mxCell id="aZStTRDdMApWXwep83oh-101" value="description2: Optional[string]" style="shape=partialRectangle;connectable=0;fillColor=none;top=0;left=0;bottom=0;right=0;align=left;spacingLeft=6;overflow=hidden;whiteSpace=wrap;html=1;" parent="aZStTRDdMApWXwep83oh-99" vertex="1">
          <mxGeometry x="30" width="170" height="30" as="geometry">
            <mxRectangle width="170" height="30" as="alternateBounds" />
          </mxGeometry>
        </mxCell>
        <mxCell id="aZStTRDdMApWXwep83oh-102" value="" style="shape=tableRow;horizontal=0;startSize=0;swimlaneHead=0;swimlaneBody=0;fillColor=none;collapsible=0;dropTarget=0;points=[[0,0.5],[1,0.5]];portConstraint=eastwest;top=0;left=0;right=0;bottom=0;" parent="aZStTRDdMApWXwep83oh-79" vertex="1">
          <mxGeometry y="240" width="200" height="30" as="geometry" />
        </mxCell>
        <mxCell id="aZStTRDdMApWXwep83oh-103" value="" style="shape=partialRectangle;connectable=0;fillColor=none;top=0;left=0;bottom=0;right=0;editable=1;overflow=hidden;whiteSpace=wrap;html=1;" parent="aZStTRDdMApWXwep83oh-102" vertex="1">
          <mxGeometry width="30" height="30" as="geometry">
            <mxRectangle width="30" height="30" as="alternateBounds" />
          </mxGeometry>
        </mxCell>
        <mxCell id="aZStTRDdMApWXwep83oh-104" value="file2: Optional[file]" style="shape=partialRectangle;connectable=0;fillColor=none;top=0;left=0;bottom=0;right=0;align=left;spacingLeft=6;overflow=hidden;whiteSpace=wrap;html=1;" parent="aZStTRDdMApWXwep83oh-102" vertex="1">
          <mxGeometry x="30" width="170" height="30" as="geometry">
            <mxRectangle width="170" height="30" as="alternateBounds" />
          </mxGeometry>
        </mxCell>
        <mxCell id="aZStTRDdMApWXwep83oh-106" value="" style="edgeStyle=entityRelationEdgeStyle;fontSize=12;html=1;endArrow=ERoneToMany;rounded=0;exitX=0;exitY=0.5;exitDx=0;exitDy=0;entryX=1;entryY=0.5;entryDx=0;entryDy=0;" parent="1" source="aZStTRDdMApWXwep83oh-17" target="aZStTRDdMApWXwep83oh-39" edge="1">
          <mxGeometry width="100" height="100" relative="1" as="geometry">
            <mxPoint x="360" y="530" as="sourcePoint" />
            <mxPoint x="550" y="470" as="targetPoint" />
          </mxGeometry>
        </mxCell>
        <mxCell id="aZStTRDdMApWXwep83oh-107" value="" style="edgeStyle=entityRelationEdgeStyle;fontSize=12;html=1;endArrow=ERoneToMany;rounded=0;exitX=1;exitY=0.5;exitDx=0;exitDy=0;entryX=0;entryY=0.5;entryDx=0;entryDy=0;" parent="1" source="aZStTRDdMApWXwep83oh-17" target="aZStTRDdMApWXwep83oh-64" edge="1">
          <mxGeometry width="100" height="100" relative="1" as="geometry">
            <mxPoint x="10" y="250" as="sourcePoint" />
            <mxPoint x="280" y="696" as="targetPoint" />
          </mxGeometry>
        </mxCell>
        <mxCell id="aZStTRDdMApWXwep83oh-108" value="" style="edgeStyle=entityRelationEdgeStyle;fontSize=12;html=1;endArrow=ERoneToMany;rounded=0;exitX=0;exitY=0.5;exitDx=0;exitDy=0;" parent="1" source="aZStTRDdMApWXwep83oh-17" target="aZStTRDdMApWXwep83oh-48" edge="1">
          <mxGeometry width="100" height="100" relative="1" as="geometry">
            <mxPoint x="-20" y="230" as="sourcePoint" />
            <mxPoint x="320" y="430" as="targetPoint" />
          </mxGeometry>
        </mxCell>
        <mxCell id="aZStTRDdMApWXwep83oh-126" value="" style="edgeStyle=entityRelationEdgeStyle;fontSize=12;html=1;endArrow=ERoneToMany;rounded=0;exitX=1;exitY=0.5;exitDx=0;exitDy=0;entryX=0;entryY=0.5;entryDx=0;entryDy=0;" parent="1" source="aZStTRDdMApWXwep83oh-58" target="aZStTRDdMApWXwep83oh-83" edge="1">
          <mxGeometry width="100" height="100" relative="1" as="geometry">
            <mxPoint x="800" y="450" as="sourcePoint" />
            <mxPoint x="880" y="670" as="targetPoint" />
          </mxGeometry>
        </mxCell>
        <mxCell id="aZStTRDdMApWXwep83oh-127" value="" style="edgeStyle=entityRelationEdgeStyle;fontSize=12;html=1;endArrow=ERmany;rounded=0;entryX=1;entryY=0.5;entryDx=0;entryDy=0;exitX=0;exitY=0.5;exitDx=0;exitDy=0;" parent="1" source="aZStTRDdMApWXwep83oh-58" target="aZStTRDdMApWXwep83oh-45" edge="1">
          <mxGeometry width="100" height="100" relative="1" as="geometry">
            <mxPoint x="380" y="400" as="sourcePoint" />
            <mxPoint x="480" y="300" as="targetPoint" />
          </mxGeometry>
        </mxCell>
      </root>
    </mxGraphModel>
  </diagram>
  <diagram id="M5-KYwiFoQCNlh5kSS4x" name="django schema">
    <mxGraphModel dx="792" dy="1104" grid="1" gridSize="10" guides="1" tooltips="1" connect="1" arrows="1" fold="1" page="1" pageScale="1" pageWidth="1500" pageHeight="1100" math="0" shadow="0">
      <root>
        <mxCell id="0" />
        <mxCell id="1" parent="0" />
        <mxCell id="OMqZBFkKlos5IiAH3VT2-1" value="&lt;font style=&quot;font-size: 24px;&quot;&gt;Szablon&lt;/font&gt;" style="rounded=1;whiteSpace=wrap;html=1;" parent="1" vertex="1">
          <mxGeometry x="560" y="160" width="120" height="60" as="geometry" />
        </mxCell>
        <mxCell id="OMqZBFkKlos5IiAH3VT2-2" value="&lt;font style=&quot;font-size: 24px;&quot;&gt;Widok&lt;/font&gt;" style="shape=hexagon;perimeter=hexagonPerimeter2;whiteSpace=wrap;html=1;fixedSize=1;" parent="1" vertex="1">
          <mxGeometry x="400" y="360" width="120" height="60" as="geometry" />
        </mxCell>
        <mxCell id="OMqZBFkKlos5IiAH3VT2-3" value="&lt;font style=&quot;font-size: 24px;&quot;&gt;Model&lt;/font&gt;" style="ellipse;whiteSpace=wrap;html=1;" parent="1" vertex="1">
          <mxGeometry x="240" y="160" width="120" height="60" as="geometry" />
        </mxCell>
        <mxCell id="OMqZBFkKlos5IiAH3VT2-4" value="" style="endArrow=classic;html=1;rounded=0;exitX=0.5;exitY=1;exitDx=0;exitDy=0;entryX=0.05;entryY=0.31;entryDx=0;entryDy=0;entryPerimeter=0;" parent="1" source="OMqZBFkKlos5IiAH3VT2-3" target="OMqZBFkKlos5IiAH3VT2-2" edge="1">
          <mxGeometry width="50" height="50" relative="1" as="geometry">
            <mxPoint x="430" y="310" as="sourcePoint" />
            <mxPoint x="403" y="384" as="targetPoint" />
          </mxGeometry>
        </mxCell>
        <mxCell id="OMqZBFkKlos5IiAH3VT2-5" value="Dane i ich format" style="edgeLabel;html=1;align=center;verticalAlign=middle;resizable=0;points=[];rotation=55;" parent="OMqZBFkKlos5IiAH3VT2-4" vertex="1" connectable="0">
          <mxGeometry relative="1" as="geometry">
            <mxPoint as="offset" />
          </mxGeometry>
        </mxCell>
        <mxCell id="OMqZBFkKlos5IiAH3VT2-6" value="" style="endArrow=classic;html=1;rounded=0;entryX=0.64;entryY=0.997;entryDx=0;entryDy=0;exitX=0.123;exitY=0.137;exitDx=0;exitDy=0;exitPerimeter=0;entryPerimeter=0;" parent="1" source="OMqZBFkKlos5IiAH3VT2-2" target="OMqZBFkKlos5IiAH3VT2-3" edge="1">
          <mxGeometry width="50" height="50" relative="1" as="geometry">
            <mxPoint x="450" y="300" as="sourcePoint" />
            <mxPoint x="410" y="400" as="targetPoint" />
          </mxGeometry>
        </mxCell>
        <mxCell id="OMqZBFkKlos5IiAH3VT2-7" value="Aktualizacja danych" style="edgeLabel;html=1;align=center;verticalAlign=middle;resizable=0;points=[];rotation=55;" parent="OMqZBFkKlos5IiAH3VT2-6" vertex="1" connectable="0">
          <mxGeometry relative="1" as="geometry">
            <mxPoint as="offset" />
          </mxGeometry>
        </mxCell>
        <mxCell id="OMqZBFkKlos5IiAH3VT2-8" value="" style="endArrow=classic;html=1;rounded=0;exitX=1;exitY=0.25;exitDx=0;exitDy=0;entryX=0.69;entryY=1.023;entryDx=0;entryDy=0;entryPerimeter=0;" parent="1" source="OMqZBFkKlos5IiAH3VT2-2" target="OMqZBFkKlos5IiAH3VT2-1" edge="1">
          <mxGeometry width="50" height="50" relative="1" as="geometry">
            <mxPoint x="490" y="340" as="sourcePoint" />
            <mxPoint x="540" y="290" as="targetPoint" />
          </mxGeometry>
        </mxCell>
        <mxCell id="OMqZBFkKlos5IiAH3VT2-9" value="Wyświetlanie danych" style="edgeLabel;html=1;align=center;verticalAlign=middle;resizable=0;points=[];rotation=-50;" parent="OMqZBFkKlos5IiAH3VT2-8" vertex="1" connectable="0">
          <mxGeometry relative="1" as="geometry">
            <mxPoint as="offset" />
          </mxGeometry>
        </mxCell>
        <mxCell id="OMqZBFkKlos5IiAH3VT2-10" value="" style="endArrow=classic;html=1;rounded=0;exitX=0.57;exitY=1.023;exitDx=0;exitDy=0;exitPerimeter=0;entryX=0.877;entryY=0.13;entryDx=0;entryDy=0;entryPerimeter=0;" parent="1" source="OMqZBFkKlos5IiAH3VT2-1" target="OMqZBFkKlos5IiAH3VT2-2" edge="1">
          <mxGeometry width="50" height="50" relative="1" as="geometry">
            <mxPoint x="527" y="392" as="sourcePoint" />
            <mxPoint x="507" y="369" as="targetPoint" />
          </mxGeometry>
        </mxCell>
        <mxCell id="OMqZBFkKlos5IiAH3VT2-11" value="Działania użytkownika" style="edgeLabel;html=1;align=center;verticalAlign=middle;resizable=0;points=[];rotation=-50;" parent="OMqZBFkKlos5IiAH3VT2-10" vertex="1" connectable="0">
          <mxGeometry relative="1" as="geometry">
            <mxPoint as="offset" />
          </mxGeometry>
        </mxCell>
      </root>
    </mxGraphModel>
  </diagram>
  <diagram id="19cjVglU36VRh3kfCyJl" name="old">
    <mxGraphModel dx="792" dy="1104" grid="1" gridSize="10" guides="1" tooltips="1" connect="1" arrows="1" fold="1" page="1" pageScale="1" pageWidth="1500" pageHeight="1100" math="0" shadow="0">
      <root>
        <mxCell id="0" />
        <mxCell id="1" parent="0" />
        <mxCell id="ZUia7CEwvIZ-B0CrILR0-1" value="LoggedUser" style="swimlane;fontStyle=0;align=center;verticalAlign=top;childLayout=stackLayout;horizontal=1;startSize=26;horizontalStack=0;resizeParent=1;resizeLast=0;collapsible=1;marginBottom=0;rounded=0;shadow=0;strokeWidth=1;" parent="1" vertex="1">
          <mxGeometry x="20" y="160" width="360" height="250" as="geometry">
            <mxRectangle x="550" y="140" width="160" height="26" as="alternateBounds" />
          </mxGeometry>
        </mxCell>
        <mxCell id="ZUia7CEwvIZ-B0CrILR0-2" value="-id: int" style="text;align=left;verticalAlign=top;spacingLeft=4;spacingRight=4;overflow=hidden;rotatable=0;points=[[0,0.5],[1,0.5]];portConstraint=eastwest;" parent="ZUia7CEwvIZ-B0CrILR0-1" vertex="1">
          <mxGeometry y="26" width="360" height="26" as="geometry" />
        </mxCell>
        <mxCell id="ZUia7CEwvIZ-B0CrILR0-3" value="-name: string" style="text;align=left;verticalAlign=top;spacingLeft=4;spacingRight=4;overflow=hidden;rotatable=0;points=[[0,0.5],[1,0.5]];portConstraint=eastwest;rounded=0;shadow=0;html=0;" parent="ZUia7CEwvIZ-B0CrILR0-1" vertex="1">
          <mxGeometry y="52" width="360" height="26" as="geometry" />
        </mxCell>
        <mxCell id="ZUia7CEwvIZ-B0CrILR0-4" value="#email: string" style="text;align=left;verticalAlign=top;spacingLeft=4;spacingRight=4;overflow=hidden;rotatable=0;points=[[0,0.5],[1,0.5]];portConstraint=eastwest;rounded=0;shadow=0;html=0;" parent="ZUia7CEwvIZ-B0CrILR0-1" vertex="1">
          <mxGeometry y="78" width="360" height="26" as="geometry" />
        </mxCell>
        <mxCell id="ZUia7CEwvIZ-B0CrILR0-5" value="#password: string" style="text;align=left;verticalAlign=top;spacingLeft=4;spacingRight=4;overflow=hidden;rotatable=0;points=[[0,0.5],[1,0.5]];portConstraint=eastwest;rounded=0;shadow=0;html=0;" parent="ZUia7CEwvIZ-B0CrILR0-1" vertex="1">
          <mxGeometry y="104" width="360" height="26" as="geometry" />
        </mxCell>
        <mxCell id="ZUia7CEwvIZ-B0CrILR0-6" value="-owned_articles: List[Article]" style="text;align=left;verticalAlign=top;spacingLeft=4;spacingRight=4;overflow=hidden;rotatable=0;points=[[0,0.5],[1,0.5]];portConstraint=eastwest;rounded=0;shadow=0;html=0;" parent="ZUia7CEwvIZ-B0CrILR0-1" vertex="1">
          <mxGeometry y="130" width="360" height="26" as="geometry" />
        </mxCell>
        <mxCell id="ZUia7CEwvIZ-B0CrILR0-7" value="-search_history: List[]" style="text;align=left;verticalAlign=top;spacingLeft=4;spacingRight=4;overflow=hidden;rotatable=0;points=[[0,0.5],[1,0.5]];portConstraint=eastwest;rounded=0;shadow=0;html=0;" parent="ZUia7CEwvIZ-B0CrILR0-1" vertex="1">
          <mxGeometry y="156" width="360" height="26" as="geometry" />
        </mxCell>
        <mxCell id="ZUia7CEwvIZ-B0CrILR0-8" value="" style="line;html=1;strokeWidth=1;align=left;verticalAlign=middle;spacingTop=-1;spacingLeft=3;spacingRight=3;rotatable=0;labelPosition=right;points=[];portConstraint=eastwest;" parent="ZUia7CEwvIZ-B0CrILR0-1" vertex="1">
          <mxGeometry y="182" width="360" height="8" as="geometry" />
        </mxCell>
        <mxCell id="ZUia7CEwvIZ-B0CrILR0-9" value="-add_article(Article article, int user_id) : void" style="text;align=left;verticalAlign=top;spacingLeft=4;spacingRight=4;overflow=hidden;rotatable=0;points=[[0,0.5],[1,0.5]];portConstraint=eastwest;" parent="ZUia7CEwvIZ-B0CrILR0-1" vertex="1">
          <mxGeometry y="190" width="360" height="26" as="geometry" />
        </mxCell>
        <mxCell id="ZUia7CEwvIZ-B0CrILR0-10" value="-comment_article(int article_id, int user_id, string comment) : void" style="text;align=left;verticalAlign=top;spacingLeft=4;spacingRight=4;overflow=hidden;rotatable=0;points=[[0,0.5],[1,0.5]];portConstraint=eastwest;" parent="ZUia7CEwvIZ-B0CrILR0-1" vertex="1">
          <mxGeometry y="216" width="360" height="26" as="geometry" />
        </mxCell>
        <mxCell id="ZUia7CEwvIZ-B0CrILR0-11" value="Editor" style="swimlane;fontStyle=2;align=center;verticalAlign=top;childLayout=stackLayout;horizontal=1;startSize=26;horizontalStack=0;resizeParent=1;resizeLast=0;collapsible=1;marginBottom=0;rounded=0;shadow=0;strokeWidth=1;" parent="1" vertex="1">
          <mxGeometry x="10" y="440" width="410" height="140" as="geometry">
            <mxRectangle x="230" y="140" width="160" height="26" as="alternateBounds" />
          </mxGeometry>
        </mxCell>
        <mxCell id="ZUia7CEwvIZ-B0CrILR0-12" value="-editor_id: int" style="text;align=left;verticalAlign=top;spacingLeft=4;spacingRight=4;overflow=hidden;rotatable=0;points=[[0,0.5],[1,0.5]];portConstraint=eastwest;" parent="ZUia7CEwvIZ-B0CrILR0-11" vertex="1">
          <mxGeometry y="26" width="410" height="26" as="geometry" />
        </mxCell>
        <mxCell id="ZUia7CEwvIZ-B0CrILR0-13" value="-editor_score: int" style="text;align=left;verticalAlign=top;spacingLeft=4;spacingRight=4;overflow=hidden;rotatable=0;points=[[0,0.5],[1,0.5]];portConstraint=eastwest;" parent="ZUia7CEwvIZ-B0CrILR0-11" vertex="1">
          <mxGeometry y="52" width="410" height="28" as="geometry" />
        </mxCell>
        <mxCell id="ZUia7CEwvIZ-B0CrILR0-14" value="" style="line;html=1;strokeWidth=1;align=left;verticalAlign=middle;spacingTop=-1;spacingLeft=3;spacingRight=3;rotatable=0;labelPosition=right;points=[];portConstraint=eastwest;" parent="ZUia7CEwvIZ-B0CrILR0-11" vertex="1">
          <mxGeometry y="80" width="410" height="8" as="geometry" />
        </mxCell>
        <mxCell id="ZUia7CEwvIZ-B0CrILR0-15" value="-review_article(int user_id, int article_id, int decision, string comment) : void" style="text;align=left;verticalAlign=top;spacingLeft=4;spacingRight=4;overflow=hidden;rotatable=0;points=[[0,0.5],[1,0.5]];portConstraint=eastwest;" parent="ZUia7CEwvIZ-B0CrILR0-11" vertex="1">
          <mxGeometry y="88" width="410" height="26" as="geometry" />
        </mxCell>
        <mxCell id="ZUia7CEwvIZ-B0CrILR0-16" value="-handle_report(int report_id, string resolution_type) : void" style="text;align=left;verticalAlign=top;spacingLeft=4;spacingRight=4;overflow=hidden;rotatable=0;points=[[0,0.5],[1,0.5]];portConstraint=eastwest;" parent="ZUia7CEwvIZ-B0CrILR0-11" vertex="1">
          <mxGeometry y="114" width="410" height="26" as="geometry" />
        </mxCell>
        <mxCell id="ZUia7CEwvIZ-B0CrILR0-17" value="Decision: Enum" style="swimlane;fontStyle=0;align=center;verticalAlign=top;childLayout=stackLayout;horizontal=1;startSize=26;horizontalStack=0;resizeParent=1;resizeLast=0;collapsible=1;marginBottom=0;rounded=0;shadow=0;strokeWidth=1;fillColor=#E6E6E6;" parent="1" vertex="1">
          <mxGeometry x="470" y="552" width="160" height="110" as="geometry">
            <mxRectangle x="550" y="140" width="160" height="26" as="alternateBounds" />
          </mxGeometry>
        </mxCell>
        <mxCell id="ZUia7CEwvIZ-B0CrILR0-18" value="denyed" style="text;align=left;verticalAlign=top;spacingLeft=4;spacingRight=4;overflow=hidden;rotatable=0;points=[[0,0.5],[1,0.5]];portConstraint=eastwest;" parent="ZUia7CEwvIZ-B0CrILR0-17" vertex="1">
          <mxGeometry y="26" width="160" height="26" as="geometry" />
        </mxCell>
        <mxCell id="ZUia7CEwvIZ-B0CrILR0-19" value="need_work" style="text;align=left;verticalAlign=top;spacingLeft=4;spacingRight=4;overflow=hidden;rotatable=0;points=[[0,0.5],[1,0.5]];portConstraint=eastwest;" parent="ZUia7CEwvIZ-B0CrILR0-17" vertex="1">
          <mxGeometry y="52" width="160" height="26" as="geometry" />
        </mxCell>
        <mxCell id="ZUia7CEwvIZ-B0CrILR0-20" value="merging_to_another_article" style="text;align=left;verticalAlign=top;spacingLeft=4;spacingRight=4;overflow=hidden;rotatable=0;points=[[0,0.5],[1,0.5]];portConstraint=eastwest;" parent="ZUia7CEwvIZ-B0CrILR0-17" vertex="1">
          <mxGeometry y="78" width="160" height="26" as="geometry" />
        </mxCell>
        <mxCell id="ZUia7CEwvIZ-B0CrILR0-21" value="Article" style="swimlane;fontStyle=0;align=center;verticalAlign=top;childLayout=stackLayout;horizontal=1;startSize=26;horizontalStack=0;resizeParent=1;resizeLast=0;collapsible=1;marginBottom=0;rounded=0;shadow=0;strokeWidth=1;" parent="1" vertex="1">
          <mxGeometry x="20" y="680" width="160" height="268" as="geometry">
            <mxRectangle x="550" y="140" width="160" height="26" as="alternateBounds" />
          </mxGeometry>
        </mxCell>
        <mxCell id="ZUia7CEwvIZ-B0CrILR0-22" value="-id: int" style="text;align=left;verticalAlign=top;spacingLeft=4;spacingRight=4;overflow=hidden;rotatable=0;points=[[0,0.5],[1,0.5]];portConstraint=eastwest;" parent="ZUia7CEwvIZ-B0CrILR0-21" vertex="1">
          <mxGeometry y="26" width="160" height="26" as="geometry" />
        </mxCell>
        <mxCell id="ZUia7CEwvIZ-B0CrILR0-23" value="-editor_id: Optional[int]" style="text;align=left;verticalAlign=top;spacingLeft=4;spacingRight=4;overflow=hidden;rotatable=0;points=[[0,0.5],[1,0.5]];portConstraint=eastwest;" parent="ZUia7CEwvIZ-B0CrILR0-21" vertex="1">
          <mxGeometry y="52" width="160" height="26" as="geometry" />
        </mxCell>
        <mxCell id="ZUia7CEwvIZ-B0CrILR0-24" value="-name: string" style="text;align=left;verticalAlign=top;spacingLeft=4;spacingRight=4;overflow=hidden;rotatable=0;points=[[0,0.5],[1,0.5]];portConstraint=eastwest;rounded=0;shadow=0;html=0;" parent="ZUia7CEwvIZ-B0CrILR0-21" vertex="1">
          <mxGeometry y="78" width="160" height="26" as="geometry" />
        </mxCell>
        <mxCell id="ZUia7CEwvIZ-B0CrILR0-25" value="-status: int" style="text;align=left;verticalAlign=top;spacingLeft=4;spacingRight=4;overflow=hidden;rotatable=0;points=[[0,0.5],[1,0.5]];portConstraint=eastwest;rounded=0;shadow=0;html=0;" parent="ZUia7CEwvIZ-B0CrILR0-21" vertex="1">
          <mxGeometry y="104" width="160" height="26" as="geometry" />
        </mxCell>
        <mxCell id="ZUia7CEwvIZ-B0CrILR0-26" value="-is_published: bool" style="text;align=left;verticalAlign=top;spacingLeft=4;spacingRight=4;overflow=hidden;rotatable=0;points=[[0,0.5],[1,0.5]];portConstraint=eastwest;rounded=0;shadow=0;html=0;" parent="ZUia7CEwvIZ-B0CrILR0-21" vertex="1">
          <mxGeometry y="130" width="160" height="26" as="geometry" />
        </mxCell>
        <mxCell id="ZUia7CEwvIZ-B0CrILR0-27" value="-kategories: List[int]" style="text;align=left;verticalAlign=top;spacingLeft=4;spacingRight=4;overflow=hidden;rotatable=0;points=[[0,0.5],[1,0.5]];portConstraint=eastwest;rounded=0;shadow=0;html=0;" parent="ZUia7CEwvIZ-B0CrILR0-21" vertex="1">
          <mxGeometry y="156" width="160" height="26" as="geometry" />
        </mxCell>
        <mxCell id="ZUia7CEwvIZ-B0CrILR0-28" value="-owner_id: int" style="text;align=left;verticalAlign=top;spacingLeft=4;spacingRight=4;overflow=hidden;rotatable=0;points=[[0,0.5],[1,0.5]];portConstraint=eastwest;rounded=0;shadow=0;html=0;" parent="ZUia7CEwvIZ-B0CrILR0-21" vertex="1">
          <mxGeometry y="182" width="160" height="26" as="geometry" />
        </mxCell>
        <mxCell id="ZUia7CEwvIZ-B0CrILR0-29" value="-steps: List[Step]" style="text;align=left;verticalAlign=top;spacingLeft=4;spacingRight=4;overflow=hidden;rotatable=0;points=[[0,0.5],[1,0.5]];portConstraint=eastwest;rounded=0;shadow=0;html=0;" parent="ZUia7CEwvIZ-B0CrILR0-21" vertex="1">
          <mxGeometry y="208" width="160" height="26" as="geometry" />
        </mxCell>
        <mxCell id="ZUia7CEwvIZ-B0CrILR0-30" value="" style="line;html=1;strokeWidth=1;align=left;verticalAlign=middle;spacingTop=-1;spacingLeft=3;spacingRight=3;rotatable=0;labelPosition=right;points=[];portConstraint=eastwest;" parent="ZUia7CEwvIZ-B0CrILR0-21" vertex="1">
          <mxGeometry y="234" width="160" height="8" as="geometry" />
        </mxCell>
        <mxCell id="ZUia7CEwvIZ-B0CrILR0-31" value="-generate_article() : void" style="text;align=left;verticalAlign=top;spacingLeft=4;spacingRight=4;overflow=hidden;rotatable=0;points=[[0,0.5],[1,0.5]];portConstraint=eastwest;" parent="ZUia7CEwvIZ-B0CrILR0-21" vertex="1">
          <mxGeometry y="242" width="160" height="26" as="geometry" />
        </mxCell>
        <mxCell id="ZUia7CEwvIZ-B0CrILR0-32" value="Step" style="swimlane;fontStyle=0;align=center;verticalAlign=top;childLayout=stackLayout;horizontal=1;startSize=26;horizontalStack=0;resizeParent=1;resizeLast=0;collapsible=1;marginBottom=0;rounded=0;shadow=0;strokeWidth=1;" parent="1" vertex="1">
          <mxGeometry x="310" y="914" width="120" height="79.12" as="geometry">
            <mxRectangle x="550" y="140" width="160" height="26" as="alternateBounds" />
          </mxGeometry>
        </mxCell>
        <mxCell id="ZUia7CEwvIZ-B0CrILR0-33" value="-number: int" style="text;align=left;verticalAlign=top;spacingLeft=4;spacingRight=4;overflow=hidden;rotatable=0;points=[[0,0.5],[1,0.5]];portConstraint=eastwest;" parent="ZUia7CEwvIZ-B0CrILR0-32" vertex="1">
          <mxGeometry y="26" width="120" height="26" as="geometry" />
        </mxCell>
        <mxCell id="ZUia7CEwvIZ-B0CrILR0-34" value="-content: List[]" style="text;align=left;verticalAlign=top;spacingLeft=4;spacingRight=4;overflow=hidden;rotatable=0;points=[[0,0.5],[1,0.5]];portConstraint=eastwest;" parent="ZUia7CEwvIZ-B0CrILR0-32" vertex="1">
          <mxGeometry y="52" width="120" height="26" as="geometry" />
        </mxCell>
        <mxCell id="ZUia7CEwvIZ-B0CrILR0-35" value="&lt;h1&gt;&lt;font style=&quot;font-size: 18px;&quot;&gt;Step&lt;/font&gt;&lt;/h1&gt;&lt;p&gt;Step is an element that represents one step in the article. It is a set of elements such as texts, images or video files put in the order that will be seen on the page.&lt;/p&gt;" style="text;html=1;strokeColor=none;fillColor=none;spacing=5;spacingTop=-20;whiteSpace=wrap;overflow=hidden;rounded=0;" parent="1" vertex="1">
          <mxGeometry x="440" y="895" width="190" height="139.12" as="geometry" />
        </mxCell>
        <mxCell id="ZUia7CEwvIZ-B0CrILR0-36" value="Report" style="swimlane;fontStyle=0;align=center;verticalAlign=top;childLayout=stackLayout;horizontal=1;startSize=26;horizontalStack=0;resizeParent=1;resizeLast=0;collapsible=1;marginBottom=0;rounded=0;shadow=0;strokeWidth=1;" parent="1" vertex="1">
          <mxGeometry x="400" y="230" width="190" height="160" as="geometry">
            <mxRectangle x="550" y="140" width="160" height="26" as="alternateBounds" />
          </mxGeometry>
        </mxCell>
        <mxCell id="ZUia7CEwvIZ-B0CrILR0-37" value="-id: int" style="text;align=left;verticalAlign=top;spacingLeft=4;spacingRight=4;overflow=hidden;rotatable=0;points=[[0,0.5],[1,0.5]];portConstraint=eastwest;" parent="ZUia7CEwvIZ-B0CrILR0-36" vertex="1">
          <mxGeometry y="26" width="190" height="26" as="geometry" />
        </mxCell>
        <mxCell id="ZUia7CEwvIZ-B0CrILR0-38" value="-article_id: Optional[int]" style="text;align=left;verticalAlign=top;spacingLeft=4;spacingRight=4;overflow=hidden;rotatable=0;points=[[0,0.5],[1,0.5]];portConstraint=eastwest;" parent="ZUia7CEwvIZ-B0CrILR0-36" vertex="1">
          <mxGeometry y="52" width="190" height="26" as="geometry" />
        </mxCell>
        <mxCell id="ZUia7CEwvIZ-B0CrILR0-39" value="-status: int" style="text;align=left;verticalAlign=top;spacingLeft=4;spacingRight=4;overflow=hidden;rotatable=0;points=[[0,0.5],[1,0.5]];portConstraint=eastwest;" parent="ZUia7CEwvIZ-B0CrILR0-36" vertex="1">
          <mxGeometry y="78" width="190" height="26" as="geometry" />
        </mxCell>
        <mxCell id="ZUia7CEwvIZ-B0CrILR0-40" value="-issue: string" style="text;align=left;verticalAlign=top;spacingLeft=4;spacingRight=4;overflow=hidden;rotatable=0;points=[[0,0.5],[1,0.5]];portConstraint=eastwest;" parent="ZUia7CEwvIZ-B0CrILR0-36" vertex="1">
          <mxGeometry y="104" width="190" height="26" as="geometry" />
        </mxCell>
        <mxCell id="ZUia7CEwvIZ-B0CrILR0-41" value="-additional_files: Optional[List[file]]" style="text;align=left;verticalAlign=top;spacingLeft=4;spacingRight=4;overflow=hidden;rotatable=0;points=[[0,0.5],[1,0.5]];portConstraint=eastwest;" parent="ZUia7CEwvIZ-B0CrILR0-36" vertex="1">
          <mxGeometry y="130" width="190" height="26" as="geometry" />
        </mxCell>
        <mxCell id="ZUia7CEwvIZ-B0CrILR0-42" value="Report_status: Enum" style="swimlane;fontStyle=0;align=center;verticalAlign=top;childLayout=stackLayout;horizontal=1;startSize=26;horizontalStack=0;resizeParent=1;resizeLast=0;collapsible=1;marginBottom=0;rounded=0;shadow=0;strokeWidth=1;fillColor=#E6E6E6;" parent="1" vertex="1">
          <mxGeometry x="610" y="340" width="160" height="130" as="geometry">
            <mxRectangle x="550" y="140" width="160" height="26" as="alternateBounds" />
          </mxGeometry>
        </mxCell>
        <mxCell id="ZUia7CEwvIZ-B0CrILR0-43" value="need_new_article" style="text;align=left;verticalAlign=top;spacingLeft=4;spacingRight=4;overflow=hidden;rotatable=0;points=[[0,0.5],[1,0.5]];portConstraint=eastwest;" parent="ZUia7CEwvIZ-B0CrILR0-42" vertex="1">
          <mxGeometry y="26" width="160" height="26" as="geometry" />
        </mxCell>
        <mxCell id="ZUia7CEwvIZ-B0CrILR0-44" value="denyed" style="text;align=left;verticalAlign=top;spacingLeft=4;spacingRight=4;overflow=hidden;rotatable=0;points=[[0,0.5],[1,0.5]];portConstraint=eastwest;" parent="ZUia7CEwvIZ-B0CrILR0-42" vertex="1">
          <mxGeometry y="52" width="160" height="26" as="geometry" />
        </mxCell>
        <mxCell id="ZUia7CEwvIZ-B0CrILR0-45" value="need_work" style="text;align=left;verticalAlign=top;spacingLeft=4;spacingRight=4;overflow=hidden;rotatable=0;points=[[0,0.5],[1,0.5]];portConstraint=eastwest;" parent="ZUia7CEwvIZ-B0CrILR0-42" vertex="1">
          <mxGeometry y="78" width="160" height="26" as="geometry" />
        </mxCell>
        <mxCell id="ZUia7CEwvIZ-B0CrILR0-46" value="merging_to_another_article" style="text;align=left;verticalAlign=top;spacingLeft=4;spacingRight=4;overflow=hidden;rotatable=0;points=[[0,0.5],[1,0.5]];portConstraint=eastwest;" parent="ZUia7CEwvIZ-B0CrILR0-42" vertex="1">
          <mxGeometry y="104" width="160" height="26" as="geometry" />
        </mxCell>
        <mxCell id="ZUia7CEwvIZ-B0CrILR0-47" value="" style="endArrow=none;dashed=1;html=1;dashPattern=1 3;strokeWidth=2;rounded=0;exitX=1;exitY=0.5;exitDx=0;exitDy=0;entryX=0.5;entryY=0;entryDx=0;entryDy=0;" parent="1" source="ZUia7CEwvIZ-B0CrILR0-10" target="ZUia7CEwvIZ-B0CrILR0-36" edge="1">
          <mxGeometry width="50" height="50" relative="1" as="geometry">
            <mxPoint x="360" y="389" as="sourcePoint" />
            <mxPoint x="380" y="460" as="targetPoint" />
            <Array as="points">
              <mxPoint x="390" y="390" />
              <mxPoint x="390" y="190" />
              <mxPoint x="495" y="190" />
            </Array>
          </mxGeometry>
        </mxCell>
        <mxCell id="ZUia7CEwvIZ-B0CrILR0-48" value="" style="endArrow=none;dashed=1;html=1;dashPattern=1 3;strokeWidth=2;rounded=0;exitX=1;exitY=0.5;exitDx=0;exitDy=0;entryX=0.5;entryY=0;entryDx=0;entryDy=0;" parent="1" source="ZUia7CEwvIZ-B0CrILR0-39" target="ZUia7CEwvIZ-B0CrILR0-42" edge="1">
          <mxGeometry width="50" height="50" relative="1" as="geometry">
            <mxPoint x="330" y="510" as="sourcePoint" />
            <mxPoint x="380" y="460" as="targetPoint" />
            <Array as="points">
              <mxPoint x="690" y="321" />
            </Array>
          </mxGeometry>
        </mxCell>
        <mxCell id="ZUia7CEwvIZ-B0CrILR0-49" value="" style="endArrow=none;dashed=1;html=1;dashPattern=1 3;strokeWidth=2;rounded=0;exitX=1;exitY=0.5;exitDx=0;exitDy=0;entryX=0.5;entryY=0;entryDx=0;entryDy=0;" parent="1" source="ZUia7CEwvIZ-B0CrILR0-15" target="ZUia7CEwvIZ-B0CrILR0-17" edge="1">
          <mxGeometry width="50" height="50" relative="1" as="geometry">
            <mxPoint x="480" y="553" as="sourcePoint" />
            <mxPoint x="490" y="480" as="targetPoint" />
            <Array as="points">
              <mxPoint x="550" y="540" />
            </Array>
          </mxGeometry>
        </mxCell>
        <mxCell id="ZUia7CEwvIZ-B0CrILR0-50" value="Article_status: Enum" style="swimlane;fontStyle=0;align=center;verticalAlign=top;childLayout=stackLayout;horizontal=1;startSize=26;horizontalStack=0;resizeParent=1;resizeLast=0;collapsible=1;marginBottom=0;rounded=0;shadow=0;strokeWidth=1;fillColor=#E6E6E6;" parent="1" vertex="1">
          <mxGeometry x="230" y="719" width="160" height="156" as="geometry">
            <mxRectangle x="550" y="140" width="160" height="26" as="alternateBounds" />
          </mxGeometry>
        </mxCell>
        <mxCell id="ZUia7CEwvIZ-B0CrILR0-51" value="not_published" style="text;align=left;verticalAlign=top;spacingLeft=4;spacingRight=4;overflow=hidden;rotatable=0;points=[[0,0.5],[1,0.5]];portConstraint=eastwest;" parent="ZUia7CEwvIZ-B0CrILR0-50" vertex="1">
          <mxGeometry y="26" width="160" height="26" as="geometry" />
        </mxCell>
        <mxCell id="ZUia7CEwvIZ-B0CrILR0-52" value="not_approved" style="text;align=left;verticalAlign=top;spacingLeft=4;spacingRight=4;overflow=hidden;rotatable=0;points=[[0,0.5],[1,0.5]];portConstraint=eastwest;" parent="ZUia7CEwvIZ-B0CrILR0-50" vertex="1">
          <mxGeometry y="52" width="160" height="26" as="geometry" />
        </mxCell>
        <mxCell id="ZUia7CEwvIZ-B0CrILR0-53" value="approved" style="text;align=left;verticalAlign=top;spacingLeft=4;spacingRight=4;overflow=hidden;rotatable=0;points=[[0,0.5],[1,0.5]];portConstraint=eastwest;" parent="ZUia7CEwvIZ-B0CrILR0-50" vertex="1">
          <mxGeometry y="78" width="160" height="26" as="geometry" />
        </mxCell>
        <mxCell id="ZUia7CEwvIZ-B0CrILR0-54" value="denyed" style="text;align=left;verticalAlign=top;spacingLeft=4;spacingRight=4;overflow=hidden;rotatable=0;points=[[0,0.5],[1,0.5]];portConstraint=eastwest;" parent="ZUia7CEwvIZ-B0CrILR0-50" vertex="1">
          <mxGeometry y="104" width="160" height="26" as="geometry" />
        </mxCell>
        <mxCell id="ZUia7CEwvIZ-B0CrILR0-55" value="need_work" style="text;align=left;verticalAlign=top;spacingLeft=4;spacingRight=4;overflow=hidden;rotatable=0;points=[[0,0.5],[1,0.5]];portConstraint=eastwest;" parent="ZUia7CEwvIZ-B0CrILR0-50" vertex="1">
          <mxGeometry y="130" width="160" height="26" as="geometry" />
        </mxCell>
        <mxCell id="ZUia7CEwvIZ-B0CrILR0-56" value="" style="endArrow=none;dashed=1;html=1;dashPattern=1 3;strokeWidth=2;rounded=0;exitX=1;exitY=0.5;exitDx=0;exitDy=0;entryX=0.5;entryY=0;entryDx=0;entryDy=0;" parent="1" source="ZUia7CEwvIZ-B0CrILR0-25" target="ZUia7CEwvIZ-B0CrILR0-50" edge="1">
          <mxGeometry width="50" height="50" relative="1" as="geometry">
            <mxPoint x="380" y="835" as="sourcePoint" />
            <mxPoint x="430" y="785" as="targetPoint" />
            <Array as="points">
              <mxPoint x="210" y="797" />
              <mxPoint x="210" y="695" />
              <mxPoint x="310" y="695" />
            </Array>
          </mxGeometry>
        </mxCell>
        <mxCell id="ZUia7CEwvIZ-B0CrILR0-57" value="" style="endArrow=none;dashed=1;html=1;dashPattern=1 3;strokeWidth=2;rounded=0;exitX=1;exitY=0.5;exitDx=0;exitDy=0;entryX=0.5;entryY=0;entryDx=0;entryDy=0;" parent="1" source="ZUia7CEwvIZ-B0CrILR0-29" target="ZUia7CEwvIZ-B0CrILR0-32" edge="1">
          <mxGeometry width="50" height="50" relative="1" as="geometry">
            <mxPoint x="380" y="925" as="sourcePoint" />
            <mxPoint x="430" y="875" as="targetPoint" />
            <Array as="points">
              <mxPoint x="370" y="901" />
            </Array>
          </mxGeometry>
        </mxCell>
        <mxCell id="ZUia7CEwvIZ-B0CrILR0-58" value="User" style="swimlane;fontStyle=0;align=center;verticalAlign=top;childLayout=stackLayout;horizontal=1;startSize=26;horizontalStack=0;resizeParent=1;resizeLast=0;collapsible=1;marginBottom=0;rounded=0;shadow=0;strokeWidth=1;" parent="1" vertex="1">
          <mxGeometry x="105" y="10" width="190" height="120" as="geometry">
            <mxRectangle x="550" y="140" width="160" height="26" as="alternateBounds" />
          </mxGeometry>
        </mxCell>
        <mxCell id="ZUia7CEwvIZ-B0CrILR0-59" value="-name: string" style="text;align=left;verticalAlign=top;spacingLeft=4;spacingRight=4;overflow=hidden;rotatable=0;points=[[0,0.5],[1,0.5]];portConstraint=eastwest;rounded=0;shadow=0;html=0;" parent="ZUia7CEwvIZ-B0CrILR0-58" vertex="1">
          <mxGeometry y="26" width="190" height="26" as="geometry" />
        </mxCell>
        <mxCell id="ZUia7CEwvIZ-B0CrILR0-60" value="" style="line;html=1;strokeWidth=1;align=left;verticalAlign=middle;spacingTop=-1;spacingLeft=3;spacingRight=3;rotatable=0;labelPosition=right;points=[];portConstraint=eastwest;" parent="ZUia7CEwvIZ-B0CrILR0-58" vertex="1">
          <mxGeometry y="52" width="190" height="8" as="geometry" />
        </mxCell>
        <mxCell id="ZUia7CEwvIZ-B0CrILR0-61" value="-report_article(Report report)" style="text;align=left;verticalAlign=top;spacingLeft=4;spacingRight=4;overflow=hidden;rotatable=0;points=[[0,0.5],[1,0.5]];portConstraint=eastwest;" parent="ZUia7CEwvIZ-B0CrILR0-58" vertex="1">
          <mxGeometry y="60" width="190" height="26" as="geometry" />
        </mxCell>
        <mxCell id="ZUia7CEwvIZ-B0CrILR0-62" value="-reuqest_article(Report report)" style="text;align=left;verticalAlign=top;spacingLeft=4;spacingRight=4;overflow=hidden;rotatable=0;points=[[0,0.5],[1,0.5]];portConstraint=eastwest;" parent="ZUia7CEwvIZ-B0CrILR0-58" vertex="1">
          <mxGeometry y="86" width="190" height="26" as="geometry" />
        </mxCell>
        <mxCell id="ZUia7CEwvIZ-B0CrILR0-63" value="" style="endArrow=classic;html=1;rounded=0;exitX=0.5;exitY=1;exitDx=0;exitDy=0;entryX=0.5;entryY=0;entryDx=0;entryDy=0;" parent="1" source="ZUia7CEwvIZ-B0CrILR0-58" target="ZUia7CEwvIZ-B0CrILR0-1" edge="1">
          <mxGeometry width="50" height="50" relative="1" as="geometry">
            <mxPoint x="550" y="180" as="sourcePoint" />
            <mxPoint x="600" y="130" as="targetPoint" />
          </mxGeometry>
        </mxCell>
        <mxCell id="ZUia7CEwvIZ-B0CrILR0-64" value="" style="endArrow=none;dashed=1;html=1;dashPattern=1 3;strokeWidth=2;rounded=0;entryX=0.5;entryY=0;entryDx=0;entryDy=0;exitX=1;exitY=0.5;exitDx=0;exitDy=0;" parent="1" source="ZUia7CEwvIZ-B0CrILR0-62" target="ZUia7CEwvIZ-B0CrILR0-36" edge="1">
          <mxGeometry width="50" height="50" relative="1" as="geometry">
            <mxPoint x="300" y="110" as="sourcePoint" />
            <mxPoint x="430" y="340" as="targetPoint" />
            <Array as="points">
              <mxPoint x="495" y="110" />
            </Array>
          </mxGeometry>
        </mxCell>
        <mxCell id="ZUia7CEwvIZ-B0CrILR0-65" value="" style="endArrow=classic;html=1;rounded=0;exitX=0.5;exitY=1;exitDx=0;exitDy=0;entryX=0.5;entryY=0;entryDx=0;entryDy=0;" parent="1" source="ZUia7CEwvIZ-B0CrILR0-1" target="ZUia7CEwvIZ-B0CrILR0-11" edge="1">
          <mxGeometry width="50" height="50" relative="1" as="geometry">
            <mxPoint x="380" y="640" as="sourcePoint" />
            <mxPoint x="430" y="590" as="targetPoint" />
          </mxGeometry>
        </mxCell>
        <mxCell id="cDIaJVdfQ-yI4aWP4Ak1-67" value="Article" style="swimlane;fontStyle=0;align=center;verticalAlign=top;childLayout=stackLayout;horizontal=1;startSize=26;horizontalStack=0;resizeParent=1;resizeLast=0;collapsible=1;marginBottom=0;rounded=0;shadow=0;strokeWidth=1;" parent="1" vertex="1">
          <mxGeometry x="1340" y="40" width="160" height="214" as="geometry">
            <mxRectangle x="550" y="140" width="160" height="26" as="alternateBounds" />
          </mxGeometry>
        </mxCell>
        <mxCell id="cDIaJVdfQ-yI4aWP4Ak1-68" value="-id: int" style="text;align=left;verticalAlign=top;spacingLeft=4;spacingRight=4;overflow=hidden;rotatable=0;points=[[0,0.5],[1,0.5]];portConstraint=eastwest;" parent="cDIaJVdfQ-yI4aWP4Ak1-67" vertex="1">
          <mxGeometry y="26" width="160" height="26" as="geometry" />
        </mxCell>
        <mxCell id="cDIaJVdfQ-yI4aWP4Ak1-69" value="-editor_id: Optional[int]" style="text;align=left;verticalAlign=top;spacingLeft=4;spacingRight=4;overflow=hidden;rotatable=0;points=[[0,0.5],[1,0.5]];portConstraint=eastwest;" parent="cDIaJVdfQ-yI4aWP4Ak1-67" vertex="1">
          <mxGeometry y="52" width="160" height="26" as="geometry" />
        </mxCell>
        <mxCell id="cDIaJVdfQ-yI4aWP4Ak1-70" value="-name: string" style="text;align=left;verticalAlign=top;spacingLeft=4;spacingRight=4;overflow=hidden;rotatable=0;points=[[0,0.5],[1,0.5]];portConstraint=eastwest;rounded=0;shadow=0;html=0;" parent="cDIaJVdfQ-yI4aWP4Ak1-67" vertex="1">
          <mxGeometry y="78" width="160" height="26" as="geometry" />
        </mxCell>
        <mxCell id="cDIaJVdfQ-yI4aWP4Ak1-71" value="-status: int" style="text;align=left;verticalAlign=top;spacingLeft=4;spacingRight=4;overflow=hidden;rotatable=0;points=[[0,0.5],[1,0.5]];portConstraint=eastwest;rounded=0;shadow=0;html=0;" parent="cDIaJVdfQ-yI4aWP4Ak1-67" vertex="1">
          <mxGeometry y="104" width="160" height="26" as="geometry" />
        </mxCell>
        <mxCell id="cDIaJVdfQ-yI4aWP4Ak1-72" value="-is_published: bool" style="text;align=left;verticalAlign=top;spacingLeft=4;spacingRight=4;overflow=hidden;rotatable=0;points=[[0,0.5],[1,0.5]];portConstraint=eastwest;rounded=0;shadow=0;html=0;" parent="cDIaJVdfQ-yI4aWP4Ak1-67" vertex="1">
          <mxGeometry y="130" width="160" height="26" as="geometry" />
        </mxCell>
        <mxCell id="cDIaJVdfQ-yI4aWP4Ak1-73" value="-owner_id: int" style="text;align=left;verticalAlign=top;spacingLeft=4;spacingRight=4;overflow=hidden;rotatable=0;points=[[0,0.5],[1,0.5]];portConstraint=eastwest;rounded=0;shadow=0;html=0;" parent="cDIaJVdfQ-yI4aWP4Ak1-67" vertex="1">
          <mxGeometry y="156" width="160" height="26" as="geometry" />
        </mxCell>
        <mxCell id="cDIaJVdfQ-yI4aWP4Ak1-74" value="-steps: List[Step]" style="text;align=left;verticalAlign=top;spacingLeft=4;spacingRight=4;overflow=hidden;rotatable=0;points=[[0,0.5],[1,0.5]];portConstraint=eastwest;rounded=0;shadow=0;html=0;" parent="cDIaJVdfQ-yI4aWP4Ak1-67" vertex="1">
          <mxGeometry y="182" width="160" height="32" as="geometry" />
        </mxCell>
        <mxCell id="cDIaJVdfQ-yI4aWP4Ak1-75" value="Step" style="swimlane;fontStyle=0;align=center;verticalAlign=top;childLayout=stackLayout;horizontal=1;startSize=26;horizontalStack=0;resizeParent=1;resizeLast=0;collapsible=1;marginBottom=0;rounded=0;shadow=0;strokeWidth=1;" parent="1" vertex="1">
          <mxGeometry x="1540" y="274" width="120" height="79.12" as="geometry">
            <mxRectangle x="550" y="140" width="160" height="26" as="alternateBounds" />
          </mxGeometry>
        </mxCell>
        <mxCell id="cDIaJVdfQ-yI4aWP4Ak1-76" value="-number: int" style="text;align=left;verticalAlign=top;spacingLeft=4;spacingRight=4;overflow=hidden;rotatable=0;points=[[0,0.5],[1,0.5]];portConstraint=eastwest;" parent="cDIaJVdfQ-yI4aWP4Ak1-75" vertex="1">
          <mxGeometry y="26" width="120" height="26" as="geometry" />
        </mxCell>
        <mxCell id="cDIaJVdfQ-yI4aWP4Ak1-77" value="-content: List[]" style="text;align=left;verticalAlign=top;spacingLeft=4;spacingRight=4;overflow=hidden;rotatable=0;points=[[0,0.5],[1,0.5]];portConstraint=eastwest;" parent="cDIaJVdfQ-yI4aWP4Ak1-75" vertex="1">
          <mxGeometry y="52" width="120" height="26" as="geometry" />
        </mxCell>
        <mxCell id="cDIaJVdfQ-yI4aWP4Ak1-78" value="&lt;h1&gt;&lt;font style=&quot;font-size: 18px;&quot;&gt;Step&lt;/font&gt;&lt;/h1&gt;&lt;p&gt;Step is an element that represents one step in the article. It is a set of elements such as texts, images or video files put in the order that will be seen on the page.&lt;/p&gt;" style="text;html=1;strokeColor=none;fillColor=none;spacing=5;spacingTop=-20;whiteSpace=wrap;overflow=hidden;rounded=0;" parent="1" vertex="1">
          <mxGeometry x="1340" y="280" width="190" height="139.12" as="geometry" />
        </mxCell>
        <mxCell id="cDIaJVdfQ-yI4aWP4Ak1-79" value="Report" style="swimlane;fontStyle=0;align=center;verticalAlign=top;childLayout=stackLayout;horizontal=1;startSize=26;horizontalStack=0;resizeParent=1;resizeLast=0;collapsible=1;marginBottom=0;rounded=0;shadow=0;strokeWidth=1;" parent="1" vertex="1">
          <mxGeometry x="940" y="40" width="200" height="160" as="geometry">
            <mxRectangle x="550" y="140" width="160" height="26" as="alternateBounds" />
          </mxGeometry>
        </mxCell>
        <mxCell id="cDIaJVdfQ-yI4aWP4Ak1-80" value="-id: int" style="text;align=left;verticalAlign=top;spacingLeft=4;spacingRight=4;overflow=hidden;rotatable=0;points=[[0,0.5],[1,0.5]];portConstraint=eastwest;" parent="cDIaJVdfQ-yI4aWP4Ak1-79" vertex="1">
          <mxGeometry y="26" width="200" height="26" as="geometry" />
        </mxCell>
        <mxCell id="cDIaJVdfQ-yI4aWP4Ak1-81" value="-article_id: Optional[int]" style="text;align=left;verticalAlign=top;spacingLeft=4;spacingRight=4;overflow=hidden;rotatable=0;points=[[0,0.5],[1,0.5]];portConstraint=eastwest;" parent="cDIaJVdfQ-yI4aWP4Ak1-79" vertex="1">
          <mxGeometry y="52" width="200" height="26" as="geometry" />
        </mxCell>
        <mxCell id="cDIaJVdfQ-yI4aWP4Ak1-82" value="-status: int" style="text;align=left;verticalAlign=top;spacingLeft=4;spacingRight=4;overflow=hidden;rotatable=0;points=[[0,0.5],[1,0.5]];portConstraint=eastwest;" parent="cDIaJVdfQ-yI4aWP4Ak1-79" vertex="1">
          <mxGeometry y="78" width="200" height="26" as="geometry" />
        </mxCell>
        <mxCell id="cDIaJVdfQ-yI4aWP4Ak1-83" value="-issue: string" style="text;align=left;verticalAlign=top;spacingLeft=4;spacingRight=4;overflow=hidden;rotatable=0;points=[[0,0.5],[1,0.5]];portConstraint=eastwest;" parent="cDIaJVdfQ-yI4aWP4Ak1-79" vertex="1">
          <mxGeometry y="104" width="200" height="26" as="geometry" />
        </mxCell>
        <mxCell id="cDIaJVdfQ-yI4aWP4Ak1-84" value="-additional_files: Optional[List[file]]" style="text;align=left;verticalAlign=top;spacingLeft=4;spacingRight=4;overflow=hidden;rotatable=0;points=[[0,0.5],[1,0.5]];portConstraint=eastwest;" parent="cDIaJVdfQ-yI4aWP4Ak1-79" vertex="1">
          <mxGeometry y="130" width="200" height="30" as="geometry" />
        </mxCell>
        <mxCell id="cDIaJVdfQ-yI4aWP4Ak1-85" value="Report_status: Enum" style="swimlane;fontStyle=0;align=center;verticalAlign=top;childLayout=stackLayout;horizontal=1;startSize=26;horizontalStack=0;resizeParent=1;resizeLast=0;collapsible=1;marginBottom=0;rounded=0;shadow=0;strokeWidth=1;fillColor=#E6E6E6;" parent="1" vertex="1">
          <mxGeometry x="1150" y="144" width="160" height="130" as="geometry">
            <mxRectangle x="550" y="140" width="160" height="26" as="alternateBounds" />
          </mxGeometry>
        </mxCell>
        <mxCell id="cDIaJVdfQ-yI4aWP4Ak1-86" value="need_new_article" style="text;align=left;verticalAlign=top;spacingLeft=4;spacingRight=4;overflow=hidden;rotatable=0;points=[[0,0.5],[1,0.5]];portConstraint=eastwest;" parent="cDIaJVdfQ-yI4aWP4Ak1-85" vertex="1">
          <mxGeometry y="26" width="160" height="26" as="geometry" />
        </mxCell>
        <mxCell id="cDIaJVdfQ-yI4aWP4Ak1-87" value="denyed" style="text;align=left;verticalAlign=top;spacingLeft=4;spacingRight=4;overflow=hidden;rotatable=0;points=[[0,0.5],[1,0.5]];portConstraint=eastwest;" parent="cDIaJVdfQ-yI4aWP4Ak1-85" vertex="1">
          <mxGeometry y="52" width="160" height="26" as="geometry" />
        </mxCell>
        <mxCell id="cDIaJVdfQ-yI4aWP4Ak1-88" value="need_work" style="text;align=left;verticalAlign=top;spacingLeft=4;spacingRight=4;overflow=hidden;rotatable=0;points=[[0,0.5],[1,0.5]];portConstraint=eastwest;" parent="cDIaJVdfQ-yI4aWP4Ak1-85" vertex="1">
          <mxGeometry y="78" width="160" height="26" as="geometry" />
        </mxCell>
        <mxCell id="cDIaJVdfQ-yI4aWP4Ak1-89" value="merging_to_another_article" style="text;align=left;verticalAlign=top;spacingLeft=4;spacingRight=4;overflow=hidden;rotatable=0;points=[[0,0.5],[1,0.5]];portConstraint=eastwest;" parent="cDIaJVdfQ-yI4aWP4Ak1-85" vertex="1">
          <mxGeometry y="104" width="160" height="26" as="geometry" />
        </mxCell>
        <mxCell id="cDIaJVdfQ-yI4aWP4Ak1-90" value="" style="endArrow=none;dashed=1;html=1;dashPattern=1 3;strokeWidth=2;rounded=0;exitX=1;exitY=0.5;exitDx=0;exitDy=0;entryX=0.5;entryY=0;entryDx=0;entryDy=0;" parent="1" source="cDIaJVdfQ-yI4aWP4Ak1-82" target="cDIaJVdfQ-yI4aWP4Ak1-85" edge="1">
          <mxGeometry width="50" height="50" relative="1" as="geometry">
            <mxPoint x="870" y="320" as="sourcePoint" />
            <mxPoint x="920" y="270" as="targetPoint" />
            <Array as="points">
              <mxPoint x="1230" y="131" />
            </Array>
          </mxGeometry>
        </mxCell>
        <mxCell id="cDIaJVdfQ-yI4aWP4Ak1-91" value="Article_status: Enum" style="swimlane;fontStyle=0;align=center;verticalAlign=top;childLayout=stackLayout;horizontal=1;startSize=26;horizontalStack=0;resizeParent=1;resizeLast=0;collapsible=1;marginBottom=0;rounded=0;shadow=0;strokeWidth=1;fillColor=#E6E6E6;" parent="1" vertex="1">
          <mxGeometry x="1540" y="79" width="160" height="160" as="geometry">
            <mxRectangle x="550" y="140" width="160" height="26" as="alternateBounds" />
          </mxGeometry>
        </mxCell>
        <mxCell id="cDIaJVdfQ-yI4aWP4Ak1-92" value="not_published" style="text;align=left;verticalAlign=top;spacingLeft=4;spacingRight=4;overflow=hidden;rotatable=0;points=[[0,0.5],[1,0.5]];portConstraint=eastwest;" parent="cDIaJVdfQ-yI4aWP4Ak1-91" vertex="1">
          <mxGeometry y="26" width="160" height="26" as="geometry" />
        </mxCell>
        <mxCell id="cDIaJVdfQ-yI4aWP4Ak1-93" value="not_approved" style="text;align=left;verticalAlign=top;spacingLeft=4;spacingRight=4;overflow=hidden;rotatable=0;points=[[0,0.5],[1,0.5]];portConstraint=eastwest;" parent="cDIaJVdfQ-yI4aWP4Ak1-91" vertex="1">
          <mxGeometry y="52" width="160" height="26" as="geometry" />
        </mxCell>
        <mxCell id="cDIaJVdfQ-yI4aWP4Ak1-94" value="approved" style="text;align=left;verticalAlign=top;spacingLeft=4;spacingRight=4;overflow=hidden;rotatable=0;points=[[0,0.5],[1,0.5]];portConstraint=eastwest;" parent="cDIaJVdfQ-yI4aWP4Ak1-91" vertex="1">
          <mxGeometry y="78" width="160" height="26" as="geometry" />
        </mxCell>
        <mxCell id="cDIaJVdfQ-yI4aWP4Ak1-95" value="denyed" style="text;align=left;verticalAlign=top;spacingLeft=4;spacingRight=4;overflow=hidden;rotatable=0;points=[[0,0.5],[1,0.5]];portConstraint=eastwest;" parent="cDIaJVdfQ-yI4aWP4Ak1-91" vertex="1">
          <mxGeometry y="104" width="160" height="26" as="geometry" />
        </mxCell>
        <mxCell id="cDIaJVdfQ-yI4aWP4Ak1-96" value="need_work" style="text;align=left;verticalAlign=top;spacingLeft=4;spacingRight=4;overflow=hidden;rotatable=0;points=[[0,0.5],[1,0.5]];portConstraint=eastwest;" parent="cDIaJVdfQ-yI4aWP4Ak1-91" vertex="1">
          <mxGeometry y="130" width="160" height="30" as="geometry" />
        </mxCell>
        <mxCell id="cDIaJVdfQ-yI4aWP4Ak1-97" value="" style="endArrow=none;dashed=1;html=1;dashPattern=1 3;strokeWidth=2;rounded=0;exitX=1;exitY=0.5;exitDx=0;exitDy=0;entryX=0.5;entryY=0;entryDx=0;entryDy=0;" parent="1" source="cDIaJVdfQ-yI4aWP4Ak1-71" target="cDIaJVdfQ-yI4aWP4Ak1-91" edge="1">
          <mxGeometry width="50" height="50" relative="1" as="geometry">
            <mxPoint x="1700" y="195" as="sourcePoint" />
            <mxPoint x="1750" y="145" as="targetPoint" />
            <Array as="points">
              <mxPoint x="1530" y="157" />
              <mxPoint x="1530" y="40" />
              <mxPoint x="1620" y="40" />
            </Array>
          </mxGeometry>
        </mxCell>
        <mxCell id="cDIaJVdfQ-yI4aWP4Ak1-98" value="" style="endArrow=none;dashed=1;html=1;dashPattern=1 3;strokeWidth=2;rounded=0;exitX=1;exitY=0.5;exitDx=0;exitDy=0;entryX=0.5;entryY=0;entryDx=0;entryDy=0;" parent="1" source="cDIaJVdfQ-yI4aWP4Ak1-74" target="cDIaJVdfQ-yI4aWP4Ak1-75" edge="1">
          <mxGeometry width="50" height="50" relative="1" as="geometry">
            <mxPoint x="1700" y="285" as="sourcePoint" />
            <mxPoint x="1750" y="235" as="targetPoint" />
            <Array as="points">
              <mxPoint x="1530" y="238" />
              <mxPoint x="1530" y="250" />
              <mxPoint x="1600" y="250" />
            </Array>
          </mxGeometry>
        </mxCell>
        <mxCell id="cDIaJVdfQ-yI4aWP4Ak1-99" value="&lt;h1&gt;Techstack:&lt;/h1&gt;&lt;p&gt;Backend:&lt;br&gt;&lt;span style=&quot;background-color: initial;&quot;&gt;Django&lt;/span&gt;&lt;/p&gt;&lt;p&gt;Batabase:&lt;br&gt;MongoDB&lt;br&gt;GridFS&lt;/p&gt;&lt;p&gt;Frontend:&lt;br&gt;React&lt;/p&gt;" style="text;html=1;strokeColor=none;fillColor=none;spacing=5;spacingTop=-20;whiteSpace=wrap;overflow=hidden;rounded=0;" parent="1" vertex="1">
          <mxGeometry x="920" y="254" width="200" height="210" as="geometry" />
        </mxCell>
        <mxCell id="cDIaJVdfQ-yI4aWP4Ak1-106" value="Joke" style="swimlane;fontStyle=0;align=center;verticalAlign=top;childLayout=stackLayout;horizontal=1;startSize=30;horizontalStack=0;resizeParent=1;resizeLast=0;collapsible=1;marginBottom=0;rounded=0;shadow=0;strokeWidth=1;" parent="1" vertex="1">
          <mxGeometry x="890" y="662" width="120" height="160" as="geometry">
            <mxRectangle x="550" y="140" width="160" height="26" as="alternateBounds" />
          </mxGeometry>
        </mxCell>
        <mxCell id="cDIaJVdfQ-yI4aWP4Ak1-107" value="-id: int" style="text;align=left;verticalAlign=top;spacingLeft=4;spacingRight=4;overflow=hidden;rotatable=0;points=[[0,0.5],[1,0.5]];portConstraint=eastwest;" parent="cDIaJVdfQ-yI4aWP4Ak1-106" vertex="1">
          <mxGeometry y="30" width="120" height="26" as="geometry" />
        </mxCell>
        <mxCell id="cDIaJVdfQ-yI4aWP4Ak1-108" value="-joke: string" style="text;align=left;verticalAlign=top;spacingLeft=4;spacingRight=4;overflow=hidden;rotatable=0;points=[[0,0.5],[1,0.5]];portConstraint=eastwest;" parent="cDIaJVdfQ-yI4aWP4Ak1-106" vertex="1">
          <mxGeometry y="56" width="120" height="26" as="geometry" />
        </mxCell>
        <mxCell id="cDIaJVdfQ-yI4aWP4Ak1-109" value="-category: string" style="text;align=left;verticalAlign=top;spacingLeft=4;spacingRight=4;overflow=hidden;rotatable=0;points=[[0,0.5],[1,0.5]];portConstraint=eastwest;" parent="cDIaJVdfQ-yI4aWP4Ak1-106" vertex="1">
          <mxGeometry y="82" width="120" height="26" as="geometry" />
        </mxCell>
        <mxCell id="cDIaJVdfQ-yI4aWP4Ak1-110" value="-mark: int" style="text;align=left;verticalAlign=top;spacingLeft=4;spacingRight=4;overflow=hidden;rotatable=0;points=[[0,0.5],[1,0.5]];portConstraint=eastwest;" parent="cDIaJVdfQ-yI4aWP4Ak1-106" vertex="1">
          <mxGeometry y="108" width="120" height="26" as="geometry" />
        </mxCell>
        <mxCell id="cDIaJVdfQ-yI4aWP4Ak1-111" value="-owner_id: int" style="text;align=left;verticalAlign=top;spacingLeft=4;spacingRight=4;overflow=hidden;rotatable=0;points=[[0,0.5],[1,0.5]];portConstraint=eastwest;" parent="cDIaJVdfQ-yI4aWP4Ak1-106" vertex="1">
          <mxGeometry y="134" width="120" height="26" as="geometry" />
        </mxCell>
        <mxCell id="s4ztnPdYfDy563vY_1xX-1" value="Article" style="swimlane;fontStyle=0;align=center;verticalAlign=top;childLayout=stackLayout;horizontal=1;startSize=30;horizontalStack=0;resizeParent=1;resizeLast=0;collapsible=1;marginBottom=0;rounded=0;shadow=0;strokeWidth=1;" parent="1" vertex="1">
          <mxGeometry x="2080" y="242" width="160" height="186" as="geometry">
            <mxRectangle x="550" y="140" width="160" height="26" as="alternateBounds" />
          </mxGeometry>
        </mxCell>
        <mxCell id="s4ztnPdYfDy563vY_1xX-2" value="-id: int" style="text;align=left;verticalAlign=top;spacingLeft=4;spacingRight=4;overflow=hidden;rotatable=0;points=[[0,0.5],[1,0.5]];portConstraint=eastwest;" parent="s4ztnPdYfDy563vY_1xX-1" vertex="1">
          <mxGeometry y="30" width="160" height="26" as="geometry" />
        </mxCell>
        <mxCell id="s4ztnPdYfDy563vY_1xX-3" value="-title: string" style="text;align=left;verticalAlign=top;spacingLeft=4;spacingRight=4;overflow=hidden;rotatable=0;points=[[0,0.5],[1,0.5]];portConstraint=eastwest;" parent="s4ztnPdYfDy563vY_1xX-1" vertex="1">
          <mxGeometry y="56" width="160" height="26" as="geometry" />
        </mxCell>
        <mxCell id="s4ztnPdYfDy563vY_1xX-4" value="-author_id: int" style="text;align=left;verticalAlign=top;spacingLeft=4;spacingRight=4;overflow=hidden;rotatable=0;points=[[0,0.5],[1,0.5]];portConstraint=eastwest;rounded=0;shadow=0;html=0;" parent="s4ztnPdYfDy563vY_1xX-1" vertex="1">
          <mxGeometry y="82" width="160" height="26" as="geometry" />
        </mxCell>
        <mxCell id="s4ztnPdYfDy563vY_1xX-5" value="-created_at: date" style="text;align=left;verticalAlign=top;spacingLeft=4;spacingRight=4;overflow=hidden;rotatable=0;points=[[0,0.5],[1,0.5]];portConstraint=eastwest;rounded=0;shadow=0;html=0;" parent="s4ztnPdYfDy563vY_1xX-1" vertex="1">
          <mxGeometry y="108" width="160" height="26" as="geometry" />
        </mxCell>
        <mxCell id="s4ztnPdYfDy563vY_1xX-6" value="-tags: List[string]" style="text;align=left;verticalAlign=top;spacingLeft=4;spacingRight=4;overflow=hidden;rotatable=0;points=[[0,0.5],[1,0.5]];portConstraint=eastwest;rounded=0;shadow=0;html=0;" parent="s4ztnPdYfDy563vY_1xX-1" vertex="1">
          <mxGeometry y="134" width="160" height="26" as="geometry" />
        </mxCell>
        <mxCell id="s4ztnPdYfDy563vY_1xX-7" value="-status: string" style="text;align=left;verticalAlign=top;spacingLeft=4;spacingRight=4;overflow=hidden;rotatable=0;points=[[0,0.5],[1,0.5]];portConstraint=eastwest;rounded=0;shadow=0;html=0;" parent="s4ztnPdYfDy563vY_1xX-1" vertex="1">
          <mxGeometry y="160" width="160" height="26" as="geometry" />
        </mxCell>
        <mxCell id="s4ztnPdYfDy563vY_1xX-8" value="Report" style="swimlane;fontStyle=0;align=center;verticalAlign=top;childLayout=stackLayout;horizontal=1;startSize=30;horizontalStack=0;resizeParent=1;resizeLast=0;collapsible=1;marginBottom=0;rounded=0;shadow=0;strokeWidth=1;" parent="1" vertex="1">
          <mxGeometry x="1800" y="282" width="160" height="268" as="geometry">
            <mxRectangle x="550" y="140" width="160" height="26" as="alternateBounds" />
          </mxGeometry>
        </mxCell>
        <mxCell id="s4ztnPdYfDy563vY_1xX-9" value="-id: int" style="text;align=left;verticalAlign=top;spacingLeft=4;spacingRight=4;overflow=hidden;rotatable=0;points=[[0,0.5],[1,0.5]];portConstraint=eastwest;" parent="s4ztnPdYfDy563vY_1xX-8" vertex="1">
          <mxGeometry y="30" width="160" height="26" as="geometry" />
        </mxCell>
        <mxCell id="s4ztnPdYfDy563vY_1xX-10" value="-title: string" style="text;align=left;verticalAlign=top;spacingLeft=4;spacingRight=4;overflow=hidden;rotatable=0;points=[[0,0.5],[1,0.5]];portConstraint=eastwest;" parent="s4ztnPdYfDy563vY_1xX-8" vertex="1">
          <mxGeometry y="56" width="160" height="26" as="geometry" />
        </mxCell>
        <mxCell id="s4ztnPdYfDy563vY_1xX-11" value="-description: string" style="text;align=left;verticalAlign=top;spacingLeft=4;spacingRight=4;overflow=hidden;rotatable=0;points=[[0,0.5],[1,0.5]];portConstraint=eastwest;" parent="s4ztnPdYfDy563vY_1xX-8" vertex="1">
          <mxGeometry y="82" width="160" height="26" as="geometry" />
        </mxCell>
        <mxCell id="s4ztnPdYfDy563vY_1xX-12" value="-author_id: int" style="text;align=left;verticalAlign=top;spacingLeft=4;spacingRight=4;overflow=hidden;rotatable=0;points=[[0,0.5],[1,0.5]];portConstraint=eastwest;" parent="s4ztnPdYfDy563vY_1xX-8" vertex="1">
          <mxGeometry y="108" width="160" height="26" as="geometry" />
        </mxCell>
        <mxCell id="s4ztnPdYfDy563vY_1xX-13" value="-created_at: date" style="text;align=left;verticalAlign=top;spacingLeft=4;spacingRight=4;overflow=hidden;rotatable=0;points=[[0,0.5],[1,0.5]];portConstraint=eastwest;" parent="s4ztnPdYfDy563vY_1xX-8" vertex="1">
          <mxGeometry y="134" width="160" height="26" as="geometry" />
        </mxCell>
        <mxCell id="s4ztnPdYfDy563vY_1xX-14" value="-article_id: int" style="text;align=left;verticalAlign=top;spacingLeft=4;spacingRight=4;overflow=hidden;rotatable=0;points=[[0,0.5],[1,0.5]];portConstraint=eastwest;" parent="s4ztnPdYfDy563vY_1xX-8" vertex="1">
          <mxGeometry y="160" width="160" height="26" as="geometry" />
        </mxCell>
        <mxCell id="s4ztnPdYfDy563vY_1xX-15" value="-editor_id: int" style="text;align=left;verticalAlign=top;spacingLeft=4;spacingRight=4;overflow=hidden;rotatable=0;points=[[0,0.5],[1,0.5]];portConstraint=eastwest;" parent="s4ztnPdYfDy563vY_1xX-8" vertex="1">
          <mxGeometry y="186" width="160" height="26" as="geometry" />
        </mxCell>
        <mxCell id="s4ztnPdYfDy563vY_1xX-16" value="-additional_file: Optional[file]" style="text;align=left;verticalAlign=top;spacingLeft=4;spacingRight=4;overflow=hidden;rotatable=0;points=[[0,0.5],[1,0.5]];portConstraint=eastwest;" parent="s4ztnPdYfDy563vY_1xX-8" vertex="1">
          <mxGeometry y="212" width="160" height="28" as="geometry" />
        </mxCell>
        <mxCell id="s4ztnPdYfDy563vY_1xX-17" value="-status: string" style="text;align=left;verticalAlign=top;spacingLeft=4;spacingRight=4;overflow=hidden;rotatable=0;points=[[0,0.5],[1,0.5]];portConstraint=eastwest;" parent="s4ztnPdYfDy563vY_1xX-8" vertex="1">
          <mxGeometry y="240" width="160" height="28" as="geometry" />
        </mxCell>
        <mxCell id="s4ztnPdYfDy563vY_1xX-18" style="edgeStyle=orthogonalEdgeStyle;rounded=0;orthogonalLoop=1;jettySize=auto;html=1;exitX=1;exitY=0.5;exitDx=0;exitDy=0;entryX=0;entryY=0.5;entryDx=0;entryDy=0;endArrow=none;endFill=0;dashed=1;" parent="1" source="s4ztnPdYfDy563vY_1xX-14" target="s4ztnPdYfDy563vY_1xX-2" edge="1">
          <mxGeometry relative="1" as="geometry">
            <Array as="points">
              <mxPoint x="2040" y="455" />
              <mxPoint x="2040" y="285" />
            </Array>
          </mxGeometry>
        </mxCell>
        <mxCell id="s4ztnPdYfDy563vY_1xX-19" value="Step" style="swimlane;fontStyle=0;align=center;verticalAlign=top;childLayout=stackLayout;horizontal=1;startSize=30;horizontalStack=0;resizeParent=1;resizeLast=0;collapsible=1;marginBottom=0;rounded=0;shadow=0;strokeWidth=1;" parent="1" vertex="1">
          <mxGeometry x="2320" y="242" width="200" height="232" as="geometry">
            <mxRectangle x="550" y="140" width="160" height="26" as="alternateBounds" />
          </mxGeometry>
        </mxCell>
        <mxCell id="s4ztnPdYfDy563vY_1xX-20" value="-id: int" style="text;align=left;verticalAlign=top;spacingLeft=4;spacingRight=4;overflow=hidden;rotatable=0;points=[[0,0.5],[1,0.5]];portConstraint=eastwest;" parent="s4ztnPdYfDy563vY_1xX-19" vertex="1">
          <mxGeometry y="30" width="200" height="26" as="geometry" />
        </mxCell>
        <mxCell id="s4ztnPdYfDy563vY_1xX-21" value="-article_id: int" style="text;align=left;verticalAlign=top;spacingLeft=4;spacingRight=4;overflow=hidden;rotatable=0;points=[[0,0.5],[1,0.5]];portConstraint=eastwest;" parent="s4ztnPdYfDy563vY_1xX-19" vertex="1">
          <mxGeometry y="56" width="200" height="26" as="geometry" />
        </mxCell>
        <mxCell id="s4ztnPdYfDy563vY_1xX-22" value="-step_number: int" style="text;align=left;verticalAlign=top;spacingLeft=4;spacingRight=4;overflow=hidden;rotatable=0;points=[[0,0.5],[1,0.5]];portConstraint=eastwest;" parent="s4ztnPdYfDy563vY_1xX-19" vertex="1">
          <mxGeometry y="82" width="200" height="26" as="geometry" />
        </mxCell>
        <mxCell id="s4ztnPdYfDy563vY_1xX-23" value="-title: string" style="text;align=left;verticalAlign=top;spacingLeft=4;spacingRight=4;overflow=hidden;rotatable=0;points=[[0,0.5],[1,0.5]];portConstraint=eastwest;" parent="s4ztnPdYfDy563vY_1xX-19" vertex="1">
          <mxGeometry y="108" width="200" height="24" as="geometry" />
        </mxCell>
        <mxCell id="s4ztnPdYfDy563vY_1xX-24" value="-description1: Optional[string]" style="text;align=left;verticalAlign=top;spacingLeft=4;spacingRight=4;overflow=hidden;rotatable=0;points=[[0,0.5],[1,0.5]];portConstraint=eastwest;rounded=0;shadow=0;html=0;" parent="s4ztnPdYfDy563vY_1xX-19" vertex="1">
          <mxGeometry y="132" width="200" height="26" as="geometry" />
        </mxCell>
        <mxCell id="s4ztnPdYfDy563vY_1xX-25" value="-file1:Optional[file]" style="text;align=left;verticalAlign=top;spacingLeft=4;spacingRight=4;overflow=hidden;rotatable=0;points=[[0,0.5],[1,0.5]];portConstraint=eastwest;rounded=0;shadow=0;html=0;" parent="s4ztnPdYfDy563vY_1xX-19" vertex="1">
          <mxGeometry y="158" width="200" height="24" as="geometry" />
        </mxCell>
        <mxCell id="s4ztnPdYfDy563vY_1xX-26" value="-description2: Optional[string]" style="text;align=left;verticalAlign=top;spacingLeft=4;spacingRight=4;overflow=hidden;rotatable=0;points=[[0,0.5],[1,0.5]];portConstraint=eastwest;rounded=0;shadow=0;html=0;" parent="s4ztnPdYfDy563vY_1xX-19" vertex="1">
          <mxGeometry y="182" width="200" height="24" as="geometry" />
        </mxCell>
        <mxCell id="s4ztnPdYfDy563vY_1xX-27" value="-file2: Optional[file]" style="text;align=left;verticalAlign=top;spacingLeft=4;spacingRight=4;overflow=hidden;rotatable=0;points=[[0,0.5],[1,0.5]];portConstraint=eastwest;rounded=0;shadow=0;html=0;" parent="s4ztnPdYfDy563vY_1xX-19" vertex="1">
          <mxGeometry y="206" width="200" height="26" as="geometry" />
        </mxCell>
        <mxCell id="s4ztnPdYfDy563vY_1xX-28" value="User" style="swimlane;fontStyle=0;align=center;verticalAlign=top;childLayout=stackLayout;horizontal=1;startSize=30;horizontalStack=0;resizeParent=1;resizeLast=0;collapsible=1;marginBottom=0;rounded=0;shadow=0;strokeWidth=1;" parent="1" vertex="1">
          <mxGeometry x="2080" y="42" width="200" height="130" as="geometry">
            <mxRectangle x="550" y="140" width="160" height="26" as="alternateBounds" />
          </mxGeometry>
        </mxCell>
        <mxCell id="s4ztnPdYfDy563vY_1xX-29" value="-id: int" style="text;align=left;verticalAlign=top;spacingLeft=4;spacingRight=4;overflow=hidden;rotatable=0;points=[[0,0.5],[1,0.5]];portConstraint=eastwest;" parent="s4ztnPdYfDy563vY_1xX-28" vertex="1">
          <mxGeometry y="30" width="200" height="26" as="geometry" />
        </mxCell>
        <mxCell id="s4ztnPdYfDy563vY_1xX-30" value="-username: string" style="text;align=left;verticalAlign=top;spacingLeft=4;spacingRight=4;overflow=hidden;rotatable=0;points=[[0,0.5],[1,0.5]];portConstraint=eastwest;" parent="s4ztnPdYfDy563vY_1xX-28" vertex="1">
          <mxGeometry y="56" width="200" height="24" as="geometry" />
        </mxCell>
        <mxCell id="s4ztnPdYfDy563vY_1xX-31" value="-password: string" style="text;align=left;verticalAlign=top;spacingLeft=4;spacingRight=4;overflow=hidden;rotatable=0;points=[[0,0.5],[1,0.5]];portConstraint=eastwest;" parent="s4ztnPdYfDy563vY_1xX-28" vertex="1">
          <mxGeometry y="80" width="200" height="24" as="geometry" />
        </mxCell>
        <mxCell id="s4ztnPdYfDy563vY_1xX-32" value="-recent_search: List[int]" style="text;align=left;verticalAlign=top;spacingLeft=4;spacingRight=4;overflow=hidden;rotatable=0;points=[[0,0.5],[1,0.5]];portConstraint=eastwest;rounded=0;shadow=0;html=0;" parent="s4ztnPdYfDy563vY_1xX-28" vertex="1">
          <mxGeometry y="104" width="200" height="26" as="geometry" />
        </mxCell>
        <mxCell id="s4ztnPdYfDy563vY_1xX-33" value="" style="edgeStyle=orthogonalEdgeStyle;rounded=0;orthogonalLoop=1;jettySize=auto;html=1;entryX=0;entryY=0.5;entryDx=0;entryDy=0;endArrow=none;endFill=0;dashed=1;exitX=1;exitY=0.5;exitDx=0;exitDy=0;" parent="1" source="s4ztnPdYfDy563vY_1xX-2" target="s4ztnPdYfDy563vY_1xX-21" edge="1">
          <mxGeometry relative="1" as="geometry" />
        </mxCell>
        <mxCell id="s4ztnPdYfDy563vY_1xX-34" style="edgeStyle=orthogonalEdgeStyle;rounded=0;orthogonalLoop=1;jettySize=auto;html=1;entryX=0;entryY=0.5;entryDx=0;entryDy=0;endArrow=none;endFill=0;dashed=1;exitX=0;exitY=0.5;exitDx=0;exitDy=0;" parent="1" source="s4ztnPdYfDy563vY_1xX-29" target="s4ztnPdYfDy563vY_1xX-4" edge="1">
          <mxGeometry relative="1" as="geometry">
            <Array as="points">
              <mxPoint x="2080" y="82" />
              <mxPoint x="2000" y="82" />
              <mxPoint x="2000" y="337" />
            </Array>
          </mxGeometry>
        </mxCell>
        <mxCell id="s4ztnPdYfDy563vY_1xX-35" style="edgeStyle=orthogonalEdgeStyle;rounded=0;orthogonalLoop=1;jettySize=auto;html=1;entryX=1;entryY=0.5;entryDx=0;entryDy=0;endArrow=none;endFill=0;dashed=1;exitX=0;exitY=0.5;exitDx=0;exitDy=0;" parent="1" source="s4ztnPdYfDy563vY_1xX-29" target="s4ztnPdYfDy563vY_1xX-12" edge="1">
          <mxGeometry relative="1" as="geometry">
            <Array as="points">
              <mxPoint x="2080" y="82" />
              <mxPoint x="2000" y="82" />
              <mxPoint x="2000" y="403" />
            </Array>
          </mxGeometry>
        </mxCell>
      </root>
    </mxGraphModel>
  </diagram>
  <diagram id="R4nxDKRfwJ6A-JrRje0-" name="BPMN">
    <mxGraphModel dx="792" dy="1104" grid="1" gridSize="10" guides="1" tooltips="1" connect="1" arrows="1" fold="1" page="1" pageScale="1" pageWidth="1500" pageHeight="1100" math="0" shadow="0">
      <root>
        <mxCell id="0" />
        <mxCell id="1" parent="0" />
        <mxCell id="fasS7GuDvRd2oyfnnaXM-2" value="Start" style="points=[[0.145,0.145,0],[0.5,0,0],[0.855,0.145,0],[1,0.5,0],[0.855,0.855,0],[0.5,1,0],[0.145,0.855,0],[0,0.5,0]];shape=mxgraph.bpmn.event;html=1;verticalLabelPosition=bottom;labelBackgroundColor=#ffffff;verticalAlign=top;align=center;perimeter=ellipsePerimeter;outlineConnect=0;aspect=fixed;outline=standard;symbol=general;" vertex="1" parent="1">
          <mxGeometry x="190" y="500" width="50" height="50" as="geometry" />
        </mxCell>
        <mxCell id="fasS7GuDvRd2oyfnnaXM-3" value="Stop" style="points=[[0.145,0.145,0],[0.5,0,0],[0.855,0.145,0],[1,0.5,0],[0.855,0.855,0],[0.5,1,0],[0.145,0.855,0],[0,0.5,0]];shape=mxgraph.bpmn.event;html=1;verticalLabelPosition=bottom;labelBackgroundColor=#ffffff;verticalAlign=top;align=center;perimeter=ellipsePerimeter;outlineConnect=0;aspect=fixed;outline=end;symbol=terminate2;" vertex="1" parent="1">
          <mxGeometry x="500" y="510" width="50" height="50" as="geometry" />
        </mxCell>
      </root>
    </mxGraphModel>
  </diagram>
</mxfile>
